{
	"asset":{
		"version":"2.0",
		"generator":"Maxon Cinema 4D 2023.2.2 (#200000219)"
	},
	"scenes":[{
		"nodes":[0,
		1,
		2]
	}],
	"nodes":[{
		"name":"Cube",
		"translation":[0.0,
		0.5631689429283142,
		0.0],
		"rotation":[0.0,
		-3.675178549347475e-15,
		0.0,
		1.0],
		"scale":[1.0,
		1.0,
		1.0]
	},
	{
		"name":"Null",
		"translation":[1.0800000429153443,
		0.20000000298023225,
		2.4000000953674318],
		"rotation":[0.0,
		0.0,
		0.0,
		-1.0],
		"scale":[1.0,
		1.0,
		1.0],
		"children":[3,
		4,
		5,
		6]
	},
	{
		"name":"Null.1",
		"translation":[1.0800000429153443,
		0.20000000298023225,
		0.0],
		"rotation":[0.0,
		0.0,
		0.0,
		-1.0],
		"scale":[1.0,
		1.0,
		1.0],
		"children":[7,
		8,
		9,
		10]
	},
	{
		"name":"X",
		"mesh":0,
		"translation":[-0.07362599670886994,
		0.001997190760448575,
		0.6938170790672302],
		"rotation":[0.0,
		-1.2246468525851679e-16,
		0.0,
		-1.0],
		"scale":[1.0,
		1.0,
		1.0]
	},
	{
		"name":"STAR",
		"mesh":1,
		"translation":[-0.15508295595645905,
		-0.006116355769336224,
		-0.7098049521446228],
		"rotation":[0.038770392537117007,
		0.5149786472320557,
		-0.4057399034500122,
		-0.7541014552116394],
		"scale":[1.0,
		1.0,
		1.0]
	},
	{
		"name":"tablet",
		"mesh":2,
		"translation":[-0.1159418448805809,
		0.18811015784740449,
		-1.2479013204574586],
		"rotation":[-0.5,
		0.5,
		0.5,
		0.5],
		"scale":[1.0,
		1.0,
		1.0]
	},
	{
		"name":"macbook.2",
		"mesh":3,
		"translation":[-0.03176450356841087,
		0.14089372754096986,
		0.0029903792310506107],
		"rotation":[0.09576966613531113,
		-0.24948851764202119,
		-0.8996265530586243,
		-0.3453342616558075],
		"scale":[1.0,
		1.0,
		1.0]
	},
	{
		"name":"X",
		"mesh":4,
		"translation":[-0.07362599670886994,
		0.001997190760448575,
		0.6938170790672302],
		"rotation":[0.0,
		-1.2246468525851679e-16,
		0.0,
		-1.0],
		"scale":[1.0,
		1.0,
		1.0]
	},
	{
		"name":"STAR",
		"mesh":5,
		"translation":[-0.15508295595645905,
		-0.006116355769336224,
		-0.7098049521446228],
		"rotation":[0.038770392537117007,
		0.5149786472320557,
		-0.4057399034500122,
		-0.7541014552116394],
		"scale":[1.0,
		1.0,
		1.0]
	},
	{
		"name":"tablet",
		"mesh":6,
		"translation":[-0.1159418448805809,
		0.18811015784740449,
		-1.2479013204574586],
		"rotation":[-0.5,
		0.5,
		0.5,
		0.5],
		"scale":[1.0,
		1.0,
		1.0]
	},
	{
		"name":"macbook.2",
		"mesh":7,
		"translation":[-0.03176450356841087,
		0.14089372754096986,
		0.0029903792310506107],
		"rotation":[0.09576966613531113,
		-0.24948851764202119,
		-0.8996265530586243,
		-0.3453342616558075],
		"scale":[1.0,
		1.0,
		1.0]
	}],
	"meshes":[{
		"name":"X",
		"primitives":[{
			"attributes":{
				"POSITION":15,
				"NORMAL":16,
				"TEXCOORD_0":17
			},
			"indices":14
		}]
	},
	{
		"name":"STAR",
		"primitives":[{
			"attributes":{
				"POSITION":21,
				"NORMAL":22,
				"TEXCOORD_0":23
			},
			"indices":20
		}]
	},
	{
		"name":"tablet",
		"primitives":[{
			"attributes":{
				"POSITION":27,
				"NORMAL":28,
				"TEXCOORD_0":29
			},
			"indices":26,
			"material":0
		}]
	},
	{
		"name":"macbook.2",
		"primitives":[{
			"attributes":{
				"POSITION":33,
				"NORMAL":34,
				"TEXCOORD_0":35
			},
			"indices":32,
			"material":1
		}]
	},
	{
		"name":"X",
		"primitives":[{
			"attributes":{
				"POSITION":39,
				"NORMAL":40,
				"TEXCOORD_0":41
			},
			"indices":38
		}]
	},
	{
		"name":"STAR",
		"primitives":[{
			"attributes":{
				"POSITION":45,
				"NORMAL":46,
				"TEXCOORD_0":47
			},
			"indices":44
		}]
	},
	{
		"name":"tablet",
		"primitives":[{
			"attributes":{
				"POSITION":51,
				"NORMAL":52,
				"TEXCOORD_0":53
			},
			"indices":50,
			"material":2
		}]
	},
	{
		"name":"macbook.2",
		"primitives":[{
			"attributes":{
				"POSITION":57,
				"NORMAL":58,
				"TEXCOORD_0":59
			},
			"indices":56,
			"material":3
		}]
	}],
	"accessors":[{
		"bufferView":0,
		"type":"SCALAR",
		"componentType":5126,
		"count":2,
		"byteOffset":0,
		"min":[0.0],
		"max":[6.0]
	},
	{
		"bufferView":0,
		"type":"VEC4",
		"componentType":5126,
		"count":2,
		"byteOffset":8,
		"min":[0.0,
		3.701899897734506e-15,
		0.0,
		-1.0],
		"max":[0.0,
		3.701899897734506e-15,
		0.0,
		-1.0]
	},
	{
		"bufferView":1,
		"type":"SCALAR",
		"componentType":5126,
		"count":2,
		"byteOffset":0,
		"min":[0.0],
		"max":[6.0]
	},
	{
		"bufferView":1,
		"type":"VEC3",
		"componentType":5126,
		"count":2,
		"byteOffset":8,
		"min":[1.0800000429153443,
		0.20000000298023225,
		0.0],
		"max":[1.0800000429153443,
		0.20000000298023225,
		2.4000000953674318]
	},
	{
		"bufferView":2,
		"type":"SCALAR",
		"componentType":5126,
		"count":2,
		"byteOffset":0,
		"min":[0.0],
		"max":[6.0]
	},
	{
		"bufferView":2,
		"type":"VEC4",
		"componentType":5126,
		"count":2,
		"byteOffset":8,
		"min":[0.0,
		0.0,
		0.0,
		-1.0],
		"max":[0.0,
		0.0,
		0.0,
		-1.0]
	},
	{
		"bufferView":3,
		"type":"SCALAR",
		"componentType":5126,
		"count":2,
		"byteOffset":0,
		"min":[0.0],
		"max":[6.0]
	},
	{
		"bufferView":3,
		"type":"VEC3",
		"componentType":5126,
		"count":2,
		"byteOffset":8,
		"min":[1.0,
		1.0,
		1.0],
		"max":[1.0,
		1.0,
		1.0]
	},
	{
		"bufferView":4,
		"type":"SCALAR",
		"componentType":5126,
		"count":2,
		"byteOffset":0,
		"min":[0.0],
		"max":[6.0]
	},
	{
		"bufferView":4,
		"type":"VEC3",
		"componentType":5126,
		"count":2,
		"byteOffset":8,
		"min":[1.0800000429153443,
		0.20000000298023225,
		-2.4000000953674318],
		"max":[1.0800000429153443,
		0.20000000298023225,
		0.0]
	},
	{
		"bufferView":5,
		"type":"SCALAR",
		"componentType":5126,
		"count":2,
		"byteOffset":0,
		"min":[0.0],
		"max":[6.0]
	},
	{
		"bufferView":5,
		"type":"VEC4",
		"componentType":5126,
		"count":2,
		"byteOffset":8,
		"min":[0.0,
		0.0,
		0.0,
		-1.0],
		"max":[0.0,
		0.0,
		0.0,
		-1.0]
	},
	{
		"bufferView":6,
		"type":"SCALAR",
		"componentType":5126,
		"count":2,
		"byteOffset":0,
		"min":[0.0],
		"max":[6.0]
	},
	{
		"bufferView":6,
		"type":"VEC3",
		"componentType":5126,
		"count":2,
		"byteOffset":8,
		"min":[1.0,
		1.0,
		1.0],
		"max":[1.0,
		1.0,
		1.0]
	},
	{
		"bufferView":7,
		"type":"SCALAR",
		"componentType":5123,
		"count":204,
		"byteOffset":0,
		"min":[0],
		"max":[107]
	},
	{
		"bufferView":8,
		"type":"VEC3",
		"componentType":5126,
		"count":108,
		"byteOffset":0,
		"min":[-0.07480835169553757,
		-0.2012329399585724,
		-0.20624765753746034],
		"max":[0.07819165289402008,
		0.18636471033096314,
		0.21817177534103394]
	},
	{
		"bufferView":8,
		"type":"VEC3",
		"componentType":5126,
		"count":108,
		"byteOffset":12,
		"min":[-1.0,
		-1.0,
		-0.8820785880088806],
		"max":[1.0,
		1.0,
		0.8847968578338623]
	},
	{
		"bufferView":8,
		"type":"VEC2",
		"componentType":5126,
		"count":108,
		"byteOffset":24,
		"min":[0.0,
		0.0],
		"max":[1.0,
		1.0]
	},
	{
		"bufferView":9,
		"type":"SCALAR",
		"componentType":5126,
		"count":5,
		"byteOffset":0,
		"min":[0.0],
		"max":[6.0]
	},
	{
		"bufferView":9,
		"type":"VEC4",
		"componentType":5126,
		"count":5,
		"byteOffset":20,
		"min":[0.0,
		0.0,
		0.0,
		-1.0],
		"max":[0.0,
		1.0,
		0.0,
		1.0]
	},
	{
		"bufferView":10,
		"type":"SCALAR",
		"componentType":5123,
		"count":168,
		"byteOffset":0,
		"min":[0],
		"max":[89]
	},
	{
		"bufferView":11,
		"type":"VEC3",
		"componentType":5126,
		"count":90,
		"byteOffset":0,
		"min":[-0.07913975417613983,
		-0.22634939849376679,
		-0.2253687083721161],
		"max":[0.07893011718988419,
		0.20265042781829835,
		0.22551465034484864]
	},
	{
		"bufferView":11,
		"type":"VEC3",
		"componentType":5126,
		"count":90,
		"byteOffset":12,
		"min":[-0.9926949739456177,
		-0.9887331128120422,
		-0.9865942597389221],
		"max":[0.9885092973709106,
		1.0,
		0.9865942597389221]
	},
	{
		"bufferView":11,
		"type":"VEC2",
		"componentType":5126,
		"count":90,
		"byteOffset":24,
		"min":[0.0,
		0.0],
		"max":[1.0,
		1.0]
	},
	{
		"bufferView":12,
		"type":"SCALAR",
		"componentType":5126,
		"count":5,
		"byteOffset":0,
		"min":[0.0],
		"max":[6.0]
	},
	{
		"bufferView":12,
		"type":"VEC4",
		"componentType":5126,
		"count":5,
		"byteOffset":20,
		"min":[-0.038770392537117007,
		-0.5149786472320557,
		-0.4057399034500122,
		-0.7541014552116394],
		"max":[0.4057399034500122,
		0.8973751068115234,
		0.4057399034500122,
		0.8973751068115234]
	},
	{
		"bufferView":13,
		"type":"SCALAR",
		"componentType":5123,
		"count":3744,
		"byteOffset":0,
		"min":[0],
		"max":[805]
	},
	{
		"bufferView":14,
		"type":"VEC3",
		"componentType":5126,
		"count":806,
		"byteOffset":0,
		"min":[-0.10238191485404968,
		-0.0049281190149486069,
		-0.14483922719955445],
		"max":[0.10238191485404968,
		0.0049281190149486069,
		0.14483922719955445]
	},
	{
		"bufferView":14,
		"type":"VEC3",
		"componentType":5126,
		"count":806,
		"byteOffset":12,
		"min":[-1.0,
		-1.0,
		-1.0],
		"max":[1.0,
		1.0,
		1.0]
	},
	{
		"bufferView":14,
		"type":"VEC2",
		"componentType":5126,
		"count":806,
		"byteOffset":24,
		"min":[-0.06199958920478821,
		0.0],
		"max":[1.0619995594024659,
		1.0]
	},
	{
		"bufferView":15,
		"type":"SCALAR",
		"componentType":5126,
		"count":5,
		"byteOffset":0,
		"min":[0.0],
		"max":[6.0]
	},
	{
		"bufferView":15,
		"type":"VEC4",
		"componentType":5126,
		"count":5,
		"byteOffset":20,
		"min":[-0.5,
		-0.5,
		-0.5,
		-0.7071067690849304],
		"max":[0.7071067690849304,
		0.7071067690849304,
		0.7071067690849304,
		0.5]
	},
	{
		"bufferView":16,
		"type":"SCALAR",
		"componentType":5123,
		"count":7488,
		"byteOffset":0,
		"min":[0],
		"max":[1611]
	},
	{
		"bufferView":17,
		"type":"VEC3",
		"componentType":5126,
		"count":1612,
		"byteOffset":0,
		"min":[-0.0798204317688942,
		-0.08106987178325653,
		-0.21377871930599214],
		"max":[0.22968551516532899,
		0.22832246124744416,
		0.21377871930599214]
	},
	{
		"bufferView":17,
		"type":"VEC3",
		"componentType":5126,
		"count":1612,
		"byteOffset":12,
		"min":[-1.0,
		-1.0,
		-1.0],
		"max":[1.0,
		1.0,
		1.0]
	},
	{
		"bufferView":17,
		"type":"VEC2",
		"componentType":5126,
		"count":1612,
		"byteOffset":24,
		"min":[-0.06199958920478821,
		0.0],
		"max":[1.0619995594024659,
		1.0]
	},
	{
		"bufferView":18,
		"type":"SCALAR",
		"componentType":5126,
		"count":5,
		"byteOffset":0,
		"min":[0.0],
		"max":[6.0]
	},
	{
		"bufferView":18,
		"type":"VEC4",
		"componentType":5126,
		"count":5,
		"byteOffset":20,
		"min":[-0.8996265530586243,
		-0.4206032156944275,
		-0.8996265530586243,
		-0.3453342616558075],
		"max":[0.09576966613531113,
		0.24948851764202119,
		0.8996265530586243,
		0.4206032156944275]
	},
	{
		"bufferView":19,
		"type":"SCALAR",
		"componentType":5123,
		"count":204,
		"byteOffset":0,
		"min":[0],
		"max":[107]
	},
	{
		"bufferView":20,
		"type":"VEC3",
		"componentType":5126,
		"count":108,
		"byteOffset":0,
		"min":[-0.07480835169553757,
		-0.2012329399585724,
		-0.20624765753746034],
		"max":[0.07819165289402008,
		0.18636471033096314,
		0.21817177534103394]
	},
	{
		"bufferView":20,
		"type":"VEC3",
		"componentType":5126,
		"count":108,
		"byteOffset":12,
		"min":[-1.0,
		-1.0,
		-0.8820785880088806],
		"max":[1.0,
		1.0,
		0.8847968578338623]
	},
	{
		"bufferView":20,
		"type":"VEC2",
		"componentType":5126,
		"count":108,
		"byteOffset":24,
		"min":[0.0,
		0.0],
		"max":[1.0,
		1.0]
	},
	{
		"bufferView":21,
		"type":"SCALAR",
		"componentType":5126,
		"count":5,
		"byteOffset":0,
		"min":[0.0],
		"max":[6.0]
	},
	{
		"bufferView":21,
		"type":"VEC4",
		"componentType":5126,
		"count":5,
		"byteOffset":20,
		"min":[0.0,
		0.0,
		0.0,
		-1.0],
		"max":[0.0,
		1.0,
		0.0,
		1.0]
	},
	{
		"bufferView":22,
		"type":"SCALAR",
		"componentType":5123,
		"count":168,
		"byteOffset":0,
		"min":[0],
		"max":[89]
	},
	{
		"bufferView":23,
		"type":"VEC3",
		"componentType":5126,
		"count":90,
		"byteOffset":0,
		"min":[-0.07913975417613983,
		-0.22634939849376679,
		-0.2253687083721161],
		"max":[0.07893011718988419,
		0.20265042781829835,
		0.22551465034484864]
	},
	{
		"bufferView":23,
		"type":"VEC3",
		"componentType":5126,
		"count":90,
		"byteOffset":12,
		"min":[-0.9926949739456177,
		-0.9887331128120422,
		-0.9865942597389221],
		"max":[0.9885092973709106,
		1.0,
		0.9865942597389221]
	},
	{
		"bufferView":23,
		"type":"VEC2",
		"componentType":5126,
		"count":90,
		"byteOffset":24,
		"min":[0.0,
		0.0],
		"max":[1.0,
		1.0]
	},
	{
		"bufferView":24,
		"type":"SCALAR",
		"componentType":5126,
		"count":5,
		"byteOffset":0,
		"min":[0.0],
		"max":[6.0]
	},
	{
		"bufferView":24,
		"type":"VEC4",
		"componentType":5126,
		"count":5,
		"byteOffset":20,
		"min":[-0.038770392537117007,
		-0.5149786472320557,
		-0.4057399034500122,
		-0.7541014552116394],
		"max":[0.4057399034500122,
		0.8973751068115234,
		0.4057399034500122,
		0.8973751068115234]
	},
	{
		"bufferView":25,
		"type":"SCALAR",
		"componentType":5123,
		"count":3744,
		"byteOffset":0,
		"min":[0],
		"max":[805]
	},
	{
		"bufferView":26,
		"type":"VEC3",
		"componentType":5126,
		"count":806,
		"byteOffset":0,
		"min":[-0.10238191485404968,
		-0.0049281190149486069,
		-0.14483922719955445],
		"max":[0.10238191485404968,
		0.0049281190149486069,
		0.14483922719955445]
	},
	{
		"bufferView":26,
		"type":"VEC3",
		"componentType":5126,
		"count":806,
		"byteOffset":12,
		"min":[-1.0,
		-1.0,
		-1.0],
		"max":[1.0,
		1.0,
		1.0]
	},
	{
		"bufferView":26,
		"type":"VEC2",
		"componentType":5126,
		"count":806,
		"byteOffset":24,
		"min":[-0.06199958920478821,
		0.0],
		"max":[1.0619995594024659,
		1.0]
	},
	{
		"bufferView":27,
		"type":"SCALAR",
		"componentType":5126,
		"count":5,
		"byteOffset":0,
		"min":[0.0],
		"max":[6.0]
	},
	{
		"bufferView":27,
		"type":"VEC4",
		"componentType":5126,
		"count":5,
		"byteOffset":20,
		"min":[-0.5,
		-0.5,
		-0.5,
		-0.7071067690849304],
		"max":[0.7071067690849304,
		0.7071067690849304,
		0.7071067690849304,
		0.5]
	},
	{
		"bufferView":28,
		"type":"SCALAR",
		"componentType":5123,
		"count":7488,
		"byteOffset":0,
		"min":[0],
		"max":[1611]
	},
	{
		"bufferView":29,
		"type":"VEC3",
		"componentType":5126,
		"count":1612,
		"byteOffset":0,
		"min":[-0.0798204317688942,
		-0.08106987178325653,
		-0.21377871930599214],
		"max":[0.22968551516532899,
		0.22832246124744416,
		0.21377871930599214]
	},
	{
		"bufferView":29,
		"type":"VEC3",
		"componentType":5126,
		"count":1612,
		"byteOffset":12,
		"min":[-1.0,
		-1.0,
		-1.0],
		"max":[1.0,
		1.0,
		1.0]
	},
	{
		"bufferView":29,
		"type":"VEC2",
		"componentType":5126,
		"count":1612,
		"byteOffset":24,
		"min":[-0.06199958920478821,
		0.0],
		"max":[1.0619995594024659,
		1.0]
	},
	{
		"bufferView":30,
		"type":"SCALAR",
		"componentType":5126,
		"count":5,
		"byteOffset":0,
		"min":[0.0],
		"max":[6.0]
	},
	{
		"bufferView":30,
		"type":"VEC4",
		"componentType":5126,
		"count":5,
		"byteOffset":20,
		"min":[-0.8996265530586243,
		-0.4206032156944275,
		-0.8996265530586243,
		-0.3453342616558075],
		"max":[0.09576966613531113,
		0.24948851764202119,
		0.8996265530586243,
		0.4206032156944275]
	}],
	"bufferViews":[{
		"buffer":0,
		"byteOffset":0,
		"byteLength":40
	},
	{
		"buffer":1,
		"byteOffset":0,
		"byteLength":32
	},
	{
		"buffer":1,
		"byteOffset":32,
		"byteLength":40
	},
	{
		"buffer":1,
		"byteOffset":72,
		"byteLength":32
	},
	{
		"buffer":2,
		"byteOffset":0,
		"byteLength":32
	},
	{
		"buffer":2,
		"byteOffset":32,
		"byteLength":40
	},
	{
		"buffer":2,
		"byteOffset":72,
		"byteLength":32
	},
	{
		"buffer":3,
		"byteOffset":0,
		"byteLength":408,
		"target":34963
	},
	{
		"buffer":3,
		"byteOffset":408,
		"byteLength":3456,
		"target":34962,
		"byteStride":32
	},
	{
		"buffer":4,
		"byteOffset":0,
		"byteLength":100
	},
	{
		"buffer":5,
		"byteOffset":0,
		"byteLength":336,
		"target":34963
	},
	{
		"buffer":5,
		"byteOffset":336,
		"byteLength":2880,
		"target":34962,
		"byteStride":32
	},
	{
		"buffer":6,
		"byteOffset":0,
		"byteLength":100
	},
	{
		"buffer":7,
		"byteOffset":0,
		"byteLength":7488,
		"target":34963
	},
	{
		"buffer":7,
		"byteOffset":7488,
		"byteLength":25792,
		"target":34962,
		"byteStride":32
	},
	{
		"buffer":8,
		"byteOffset":0,
		"byteLength":100
	},
	{
		"buffer":9,
		"byteOffset":0,
		"byteLength":14976,
		"target":34963
	},
	{
		"buffer":9,
		"byteOffset":14976,
		"byteLength":51584,
		"target":34962,
		"byteStride":32
	},
	{
		"buffer":10,
		"byteOffset":0,
		"byteLength":100
	},
	{
		"buffer":11,
		"byteOffset":0,
		"byteLength":408,
		"target":34963
	},
	{
		"buffer":11,
		"byteOffset":408,
		"byteLength":3456,
		"target":34962,
		"byteStride":32
	},
	{
		"buffer":12,
		"byteOffset":0,
		"byteLength":100
	},
	{
		"buffer":13,
		"byteOffset":0,
		"byteLength":336,
		"target":34963
	},
	{
		"buffer":13,
		"byteOffset":336,
		"byteLength":2880,
		"target":34962,
		"byteStride":32
	},
	{
		"buffer":14,
		"byteOffset":0,
		"byteLength":100
	},
	{
		"buffer":15,
		"byteOffset":0,
		"byteLength":7488,
		"target":34963
	},
	{
		"buffer":15,
		"byteOffset":7488,
		"byteLength":25792,
		"target":34962,
		"byteStride":32
	},
	{
		"buffer":16,
		"byteOffset":0,
		"byteLength":100
	},
	{
		"buffer":17,
		"byteOffset":0,
		"byteLength":14976,
		"target":34963
	},
	{
		"buffer":17,
		"byteOffset":14976,
		"byteLength":51584,
		"target":34962,
		"byteStride":32
	},
	{
		"buffer":18,
		"byteOffset":0,
		"byteLength":100
	}],
	"buffers":[{
		"uri":"data:application/octet-stream;base64,",
		"byteLength":40
	},
	{
		"uri":"data:application/octet-stream;base64,",
		"byteLength":104
	},
	{
		"uri":"data:application/octet-stream;base64,",
		"byteLength":104
	},
	{
		"uri":"data:application/octet-stream;base64,",
		"byteLength":3864
	},
	{
		"uri":"data:application/octet-stream;base64,",
		"byteLength":100
	},
	{
		"uri":"data:application/octet-stream;base64,",
		"byteLength":3216
	},
	{
		"uri":"data:application/octet-stream;base64,",
		"byteLength":100
	},
	{
		"uri":"data:application/octet-stream;base64,",
		"byteLength":33280
	},
	{
		"uri":"data:application/octet-stream;base64,",
		"byteLength":100
	},
	{
		"uri":"data:application/octet-stream;base64,",
		"byteLength":66560
	},
	{
		"uri":"data:application/octet-stream;base64,",
		"byteLength":100
	},
	{
		"uri":"data:application/octet-stream;base64,",
		"byteLength":3864
	},
	{
		"uri":"data:application/octet-stream;base64,",
		"byteLength":100
	},
	{
		"uri":"data:application/octet-stream;base64,",
		"byteLength":3216
	},
	{
		"uri":"data:application/octet-stream;base64,",
		"byteLength":100
	},
	{
		"uri":"data:application/octet-stream;base64,",
		"byteLength":33280
	},
	{
		"uri":"data:application/octet-stream;base64,",
		"byteLength":100
	},
	{
		"uri":"data:application/octet-stream;base64,",
		"byteLength":66560
	},
	{
		"uri":"data:application/octet-stream;base64,",
		"byteLength":100
	}],
	"animations":[{
		"samplers":[{
			"input":0,
			"interpolation":"LINEAR",
			"output":1
		},
		{
			"input":2,
			"interpolation":"LINEAR",
			"output":3
		},
		{
			"input":4,
			"interpolation":"LINEAR",
			"output":5
		},
		{
			"input":6,
			"interpolation":"LINEAR",
			"output":7
		},
		{
			"input":8,
			"interpolation":"LINEAR",
			"output":9
		},
		{
			"input":10,
			"interpolation":"LINEAR",
			"output":11
		},
		{
			"input":12,
			"interpolation":"LINEAR",
			"output":13
		},
		{
			"input":18,
			"interpolation":"LINEAR",
			"output":19
		},
		{
			"input":24,
			"interpolation":"LINEAR",
			"output":25
		},
		{
			"input":30,
			"interpolation":"LINEAR",
			"output":31
		},
		{
			"input":36,
			"interpolation":"LINEAR",
			"output":37
		},
		{
			"input":42,
			"interpolation":"LINEAR",
			"output":43
		},
		{
			"input":48,
			"interpolation":"LINEAR",
			"output":49
		},
		{
			"input":54,
			"interpolation":"LINEAR",
			"output":55
		},
		{
			"input":60,
			"interpolation":"LINEAR",
			"output":61
		}],
		"channels":[{
			"sampler":0,
			"target":{
				"node":0,
				"path":"rotation"
			}
		},
		{
			"sampler":1,
			"target":{
				"node":1,
				"path":"translation"
			}
		},
		{
			"sampler":2,
			"target":{
				"node":1,
				"path":"rotation"
			}
		},
		{
			"sampler":3,
			"target":{
				"node":1,
				"path":"scale"
			}
		},
		{
			"sampler":4,
			"target":{
				"node":2,
				"path":"translation"
			}
		},
		{
			"sampler":5,
			"target":{
				"node":2,
				"path":"rotation"
			}
		},
		{
			"sampler":6,
			"target":{
				"node":2,
				"path":"scale"
			}
		},
		{
			"sampler":7,
			"target":{
				"node":3,
				"path":"rotation"
			}
		},
		{
			"sampler":8,
			"target":{
				"node":4,
				"path":"rotation"
			}
		},
		{
			"sampler":9,
			"target":{
				"node":5,
				"path":"rotation"
			}
		},
		{
			"sampler":10,
			"target":{
				"node":6,
				"path":"rotation"
			}
		},
		{
			"sampler":11,
			"target":{
				"node":7,
				"path":"rotation"
			}
		},
		{
			"sampler":12,
			"target":{
				"node":8,
				"path":"rotation"
			}
		},
		{
			"sampler":13,
			"target":{
				"node":9,
				"path":"rotation"
			}
		},
		{
			"sampler":14,
			"target":{
				"node":10,
				"path":"rotation"
			}
		}]
	}],
	"materials":[{
		"pbrMetallicRoughness":{
			"baseColorFactor":[1.0,
			1.0,
			1.0,
			1.0],
			"metallicFactor":1.0,
			"roughnessFactor":1.0
		},
		"emissiveFactor":[0.0,
		0.0,
		0.0],
		"alphaMode":"OPAQUE",
		"doubleSided":false,
		"name":""
	},
	{
		"pbrMetallicRoughness":{
			"baseColorFactor":[1.0,
			1.0,
			1.0,
			1.0],
			"metallicFactor":1.0,
			"roughnessFactor":1.0
		},
		"emissiveFactor":[0.0,
		0.0,
		0.0],
		"alphaMode":"OPAQUE",
		"doubleSided":false,
		"name":""
	},
	{
		"pbrMetallicRoughness":{
			"baseColorFactor":[1.0,
			1.0,
			1.0,
			1.0],
			"metallicFactor":1.0,
			"roughnessFactor":1.0
		},
		"emissiveFactor":[0.0,
		0.0,
		0.0],
		"alphaMode":"OPAQUE",
		"doubleSided":false,
		"name":""
	},
	{
		"pbrMetallicRoughness":{
			"baseColorFactor":[1.0,
			1.0,
			1.0,
			1.0],
			"metallicFactor":1.0,
			"roughnessFactor":1.0
		},
		"emissiveFactor":[0.0,
		0.0,
		0.0],
		"alphaMode":"OPAQUE",
		"doubleSided":false,
		"name":""
	}]
}