{
	"asset":{
		"version":"2.0",
		"generator":""
	},
	"scenes":[{
		"nodes":[0]
	}],
	"nodes":[{
		"name":"Null",
		"translation":[-0.041071731597185138,
		0.01789349690079689,
		0.0],
		"rotation":[0.0,
		0.0,
		0.0,
		-1.0],
		"children":[1,
		2],
		"scale":[0.08892761170864105,
		0.08892761170864105,
		0.08892761170864105]
	},
	{
		"name":"0",
		"mesh":0,
		"translation":[-22.83258628845215,
		-9.370377540588379,
		0.0],
		"rotation":[0.0,
		0.0,
		0.0,
		-1.0],
		"scale":[1.0,
		1.0,
		1.0]
	},
	{
		"name":"1",
		"mesh":1,
		"translation":[-22.83258628845215,
		-9.370377540588379,
		0.0],
		"rotation":[0.0,
		0.0,
		0.0,
		-1.0],
		"scale":[1.0,
		1.0,
		1.0]
	}],
	"meshes":[{
		"name":"0",
		"primitives":[{
			"targets":[{
				"POSITION":4
			},
			{
				"POSITION":5
			}],
			"attributes":{
				"POSITION":1,
				"NORMAL":2,
				"TEXCOORD_0":3
			},
			"indices":0,
			"material":0
		}],
		"extras":{
			"targetNames":["Pose.0",
			"Pose.1"]
		},
		"weights":[0.0,
		0.0]
	},
	{
		"name":"1",
		"primitives":[{
			"targets":[{
				"POSITION":12
			},
			{
				"POSITION":13
			}],
			"attributes":{
				"POSITION":9,
				"NORMAL":10,
				"TEXCOORD_0":11
			},
			"indices":8,
			"material":0
		}],
		"extras":{
			"targetNames":["Pose.0",
			"Pose.1"]
		},
		"weights":[0.0,
		0.0]
	}],
	"accessors":[{
		"type":"SCALAR",
		"bufferView":0,
		"componentType":5123,
		"count":381,
		"byteOffset":0,
		"min":[0],
		"max":[126]
	},
	{
		"type":"VEC3",
		"bufferView":1,
		"componentType":5126,
		"count":127,
		"byteOffset":0,
		"min":[22.496479034423829,
		7.093225002288818,
		0.0],
		"max":[27.451208114624025,
		11.245101928710938,
		0.0]
	},
	{
		"type":"VEC3",
		"bufferView":1,
		"componentType":5126,
		"count":127,
		"byteOffset":12,
		"min":[0.0,
		0.0,
		1.0],
		"max":[0.0,
		0.0,
		1.0]
	},
	{
		"type":"VEC2",
		"bufferView":1,
		"componentType":5126,
		"count":127,
		"byteOffset":24,
		"min":[0.0,
		0.0],
		"max":[1.0,
		0.8379625082015991]
	},
	{
		"type":"VEC3",
		"bufferView":2,
		"componentType":5126,
		"count":127,
		"byteOffset":0,
		"min":[-0.6032323241233826,
		-2.069572925567627,
		0.0],
		"max":[0.6032323241233826,
		1.8327052593231202,
		0.0]
	},
	{
		"type":"VEC3",
		"bufferView":3,
		"componentType":5126,
		"count":127,
		"byteOffset":0,
		"min":[0.0,
		-2.076505184173584,
		0.0],
		"max":[0.0,
		2.076505184173584,
		0.0]
	},
	{
		"type":"SCALAR",
		"bufferView":4,
		"componentType":5126,
		"count":3,
		"byteOffset":0,
		"min":[0.0],
		"max":[1.5]
	},
	{
		"type":"SCALAR",
		"bufferView":4,
		"componentType":5126,
		"count":6,
		"byteOffset":12,
		"min":[0.0],
		"max":[1.0]
	},
	{
		"type":"SCALAR",
		"bufferView":5,
		"componentType":5123,
		"count":42,
		"byteOffset":0,
		"min":[0],
		"max":[15]
	},
	{
		"type":"VEC3",
		"bufferView":6,
		"componentType":5126,
		"count":16,
		"byteOffset":0,
		"min":[19.13767433166504,
		7.110504150390625,
		0.0],
		"max":[22.057228088378908,
		11.210169792175293,
		0.0]
	},
	{
		"type":"VEC3",
		"bufferView":6,
		"componentType":5126,
		"count":16,
		"byteOffset":12,
		"min":[0.0,
		0.0,
		1.0],
		"max":[0.0,
		0.0,
		1.0]
	},
	{
		"type":"VEC2",
		"bufferView":6,
		"componentType":5126,
		"count":16,
		"byteOffset":24,
		"min":[0.0,
		0.0],
		"max":[0.7121443152427673,
		1.0]
	},
	{
		"type":"VEC3",
		"bufferView":7,
		"componentType":5126,
		"count":16,
		"byteOffset":0,
		"min":[-2.8584213256835939,
		0.0,
		0.0],
		"max":[0.0025710398331284525,
		3.552713678800501e-15,
		0.0]
	},
	{
		"type":"VEC3",
		"bufferView":8,
		"componentType":5126,
		"count":16,
		"byteOffset":0,
		"min":[0.0,
		-2.049832820892334,
		0.0],
		"max":[0.0,
		2.049832820892334,
		0.0]
	},
	{
		"type":"SCALAR",
		"bufferView":9,
		"componentType":5126,
		"count":3,
		"byteOffset":0,
		"min":[0.0],
		"max":[1.5]
	},
	{
		"type":"SCALAR",
		"bufferView":9,
		"componentType":5126,
		"count":6,
		"byteOffset":12,
		"min":[0.0],
		"max":[1.0]
	}],
	"bufferViews":[{
		"buffer":0,
		"byteOffset":0,
		"byteLength":762,
		"target":34963
	},
	{
		"buffer":0,
		"byteOffset":764,
		"byteLength":4064,
		"target":34962,
		"byteStride":32
	},
	{
		"buffer":0,
		"byteOffset":4828,
		"byteLength":1524,
		"target":34962
	},
	{
		"buffer":0,
		"byteOffset":6352,
		"byteLength":1524,
		"target":34962
	},
	{
		"buffer":1,
		"byteOffset":0,
		"byteLength":36
	},
	{
		"buffer":2,
		"byteOffset":0,
		"byteLength":84,
		"target":34963
	},
	{
		"buffer":2,
		"byteOffset":84,
		"byteLength":512,
		"target":34962,
		"byteStride":32
	},
	{
		"buffer":2,
		"byteOffset":596,
		"byteLength":192,
		"target":34962
	},
	{
		"buffer":2,
		"byteOffset":788,
		"byteLength":192,
		"target":34962
	},
	{
		"buffer":3,
		"byteOffset":0,
		"byteLength":36
	}],
	"buffers":[{
		"uri":"data:application/octet-stream;base64,",
		"byteLength":7876
	},
	{
		"uri":"data:application/octet-stream;base64,",
		"byteLength":36
	},
	{
		"uri":"data:application/octet-stream;base64,",
		"byteLength":980
	},
	{
		"uri":"data:application/octet-stream;base64,",
		"byteLength":36
	}],
	"animations":[{
		"samplers":[{
			"input":6,
			"interpolation":"LINEAR",
			"output":7
		},
		{
			"input":14,
			"interpolation":"LINEAR",
			"output":15
		}],
		"channels":[{
			"sampler":0,
			"target":{
				"node":1,
				"path":"weights"
			}
		},
		{
			"sampler":1,
			"target":{
				"node":2,
				"path":"weights"
			}
		}]
	}],
	"materials":[{
		"pbrMetallicRoughness":{
			"baseColorFactor":[0.6078431372549019,
			0.6078431372549019,
			0.5333333333333333,
			1.0],
			"metallicFactor":1.0,
			"roughnessFactor":1.0
		},
		"emissiveFactor":[0.0,
		0.0,
		0.0],
		"alphaMode":"OPAQUE",
		"doubleSided":false,
		"name":"Mat"
	}]
}