{
	"asset":{
		"version":"2.0",
		"generator":""
	},
	"scenes":[{
		"nodes":[0]
	}],
	"nodes":[{
		"name":"Layer 1",
		"children":[1,
		2,
		3,
		4,
		5,
		6,
		7,
		8,
		9,
		10]
	},
	{
		"name":"line.1",
		"mesh":0,
		"translation":[-0.40325087308883669,
		-1.0453804731369019,
		0.0],
		"rotation":[0.0,
		0.0,
		0.0,
		-1.0],
		"scale":[0.05888018384575844,
		0.05888018384575844,
		0.05888018384575844]
	},
	{
		"name":"line",
		"mesh":1,
		"translation":[-0.7264870405197144,
		-0.7291491627693176,
		0.0],
		"rotation":[0.0,
		0.0,
		0.0,
		-1.0],
		"scale":[0.05888018384575844,
		0.05888018384575844,
		0.05888018384575844]
	},
	{
		"name":"K",
		"mesh":2,
		"translation":[-0.8882763981819153,
		-0.5182325839996338,
		0.0],
		"rotation":[0.0,
		0.0,
		0.0,
		-1.0],
		"scale":[1.0,
		1.0,
		1.0]
	},
	{
		"name":"R",
		"mesh":3,
		"translation":[-0.8882763981819153,
		-0.5182325839996338,
		0.0],
		"rotation":[0.0,
		0.0,
		0.0,
		-1.0],
		"scale":[1.0,
		1.0,
		1.0]
	},
	{
		"name":"O",
		"mesh":4,
		"translation":[-0.8882763981819153,
		-0.5182325839996338,
		0.0],
		"rotation":[0.0,
		0.0,
		0.0,
		-1.0],
		"scale":[1.0,
		1.0,
		1.0]
	},
	{
		"name":"W",
		"mesh":5,
		"translation":[-0.8882763981819153,
		-0.5182325839996338,
		0.0],
		"rotation":[0.0,
		0.0,
		0.0,
		-1.0],
		"scale":[1.0,
		1.0,
		1.0]
	},
	{
		"name":"T",
		"mesh":6,
		"translation":[-0.8882763981819153,
		-0.5120996236801148,
		0.0],
		"rotation":[0.0,
		0.0,
		0.0,
		-1.0],
		"scale":[1.0,
		1.0,
		1.0]
	},
	{
		"name":"X",
		"mesh":7,
		"translation":[-0.8882763981819153,
		-0.5120996236801148,
		0.0],
		"rotation":[0.0,
		0.0,
		0.0,
		-1.0],
		"scale":[1.0,
		1.0,
		1.0]
	},
	{
		"name":"E",
		"mesh":8,
		"translation":[-0.8882763981819153,
		-0.5120996236801148,
		0.0],
		"rotation":[0.0,
		0.0,
		0.0,
		-1.0],
		"scale":[1.0,
		1.0,
		1.0]
	},
	{
		"name":"N",
		"mesh":9,
		"translation":[-0.8882763981819153,
		-0.5120996236801148,
		0.0],
		"rotation":[0.0,
		0.0,
		0.0,
		-1.0],
		"scale":[1.0,
		1.0,
		1.0]
	}],
	"meshes":[{
		"name":"line.1",
		"primitives":[{
			"attributes":{
				"POSITION":1,
				"NORMAL":2,
				"TEXCOORD_0":3
			},
			"indices":0
		}]
	},
	{
		"name":"line",
		"primitives":[{
			"attributes":{
				"POSITION":5,
				"NORMAL":6,
				"TEXCOORD_0":7
			},
			"indices":4
		}]
	},
	{
		"name":"K",
		"primitives":[{
			"targets":[{
				"POSITION":12
			},
			{
				"POSITION":13
			},
			{
				"POSITION":14
			}],
			"attributes":{
				"POSITION":9,
				"NORMAL":10,
				"TEXCOORD_0":11
			},
			"indices":8
		}],
		"extras":{
			"targetNames":["Pose.0",
			"Pose.1",
			"Pose.2"]
		},
		"weights":[0.0,
		0.0,
		1.0]
	},
	{
		"name":"R",
		"primitives":[{
			"targets":[{
				"POSITION":21
			},
			{
				"POSITION":22
			},
			{
				"POSITION":23
			}],
			"attributes":{
				"POSITION":18,
				"NORMAL":19,
				"TEXCOORD_0":20
			},
			"indices":17
		}],
		"extras":{
			"targetNames":["Pose.0",
			"Pose.1",
			"Pose.2"]
		},
		"weights":[0.0,
		0.0,
		1.0]
	},
	{
		"name":"O",
		"primitives":[{
			"targets":[{
				"POSITION":30
			},
			{
				"POSITION":31
			},
			{
				"POSITION":32
			}],
			"attributes":{
				"POSITION":27,
				"NORMAL":28,
				"TEXCOORD_0":29
			},
			"indices":26
		}],
		"extras":{
			"targetNames":["Pose.0",
			"Pose.1",
			"Pose.2"]
		},
		"weights":[0.0,
		0.0,
		1.0]
	},
	{
		"name":"W",
		"primitives":[{
			"targets":[{
				"POSITION":39
			},
			{
				"POSITION":40
			},
			{
				"POSITION":41
			}],
			"attributes":{
				"POSITION":36,
				"NORMAL":37,
				"TEXCOORD_0":38
			},
			"indices":35
		}],
		"extras":{
			"targetNames":["Pose.0",
			"Pose.1",
			"Pose.2"]
		},
		"weights":[0.0,
		0.0,
		1.0]
	},
	{
		"name":"T",
		"primitives":[{
			"targets":[{
				"POSITION":48
			},
			{
				"POSITION":49
			},
			{
				"POSITION":50
			}],
			"attributes":{
				"POSITION":45,
				"NORMAL":46,
				"TEXCOORD_0":47
			},
			"indices":44
		}],
		"extras":{
			"targetNames":["Pose.0",
			"Pose.1",
			"Pose.2"]
		},
		"weights":[0.0,
		0.0,
		1.0]
	},
	{
		"name":"X",
		"primitives":[{
			"targets":[{
				"POSITION":57
			},
			{
				"POSITION":58
			},
			{
				"POSITION":59
			}],
			"attributes":{
				"POSITION":54,
				"NORMAL":55,
				"TEXCOORD_0":56
			},
			"indices":53
		}],
		"extras":{
			"targetNames":["Pose.0",
			"Pose.1",
			"Pose.2"]
		},
		"weights":[0.0,
		0.0,
		1.0]
	},
	{
		"name":"E",
		"primitives":[{
			"targets":[{
				"POSITION":66
			},
			{
				"POSITION":67
			},
			{
				"POSITION":68
			}],
			"attributes":{
				"POSITION":63,
				"NORMAL":64,
				"TEXCOORD_0":65
			},
			"indices":62
		}],
		"extras":{
			"targetNames":["Pose.0",
			"Pose.1",
			"Pose.2"]
		},
		"weights":[0.0,
		0.0,
		1.0]
	},
	{
		"name":"N",
		"primitives":[{
			"targets":[{
				"POSITION":75
			},
			{
				"POSITION":76
			},
			{
				"POSITION":77
			}],
			"attributes":{
				"POSITION":72,
				"NORMAL":73,
				"TEXCOORD_0":74
			},
			"indices":71
		}],
		"extras":{
			"targetNames":["Pose.0",
			"Pose.1",
			"Pose.2"]
		},
		"weights":[0.0,
		0.0,
		1.0]
	}],
	"accessors":[{
		"bufferView":0,
		"type":"SCALAR",
		"componentType":5123,
		"count":6,
		"byteOffset":0,
		"min":[0],
		"max":[3]
	},
	{
		"bufferView":1,
		"type":"VEC3",
		"componentType":5126,
		"count":4,
		"byteOffset":0,
		"min":[0.44615277647972109,
		12.447884559631348,
		0.0],
		"max":[20.1828556060791,
		12.531193733215332,
		0.0]
	},
	{
		"bufferView":1,
		"type":"VEC3",
		"componentType":5126,
		"count":4,
		"byteOffset":12,
		"min":[0.0,
		0.0,
		1.0],
		"max":[0.0,
		0.0,
		1.0]
	},
	{
		"bufferView":1,
		"type":"VEC2",
		"componentType":5126,
		"count":4,
		"byteOffset":24,
		"min":[0.0,
		0.0],
		"max":[0.26000016927719118,
		1.0]
	},
	{
		"bufferView":2,
		"type":"SCALAR",
		"componentType":5123,
		"count":6,
		"byteOffset":0,
		"min":[0],
		"max":[3]
	},
	{
		"bufferView":3,
		"type":"VEC3",
		"componentType":5126,
		"count":4,
		"byteOffset":0,
		"min":[0.495546817779541,
		12.447884559631348,
		0.0],
		"max":[15.312883377075196,
		12.531193733215332,
		0.0]
	},
	{
		"bufferView":3,
		"type":"VEC3",
		"componentType":5126,
		"count":4,
		"byteOffset":12,
		"min":[0.0,
		0.0,
		1.0],
		"max":[0.0,
		0.0,
		1.0]
	},
	{
		"bufferView":3,
		"type":"VEC2",
		"componentType":5126,
		"count":4,
		"byteOffset":24,
		"min":[0.0,
		0.0],
		"max":[0.26000016927719118,
		1.0]
	},
	{
		"bufferView":4,
		"type":"SCALAR",
		"componentType":5123,
		"count":39,
		"byteOffset":0,
		"min":[0],
		"max":[14]
	},
	{
		"bufferView":5,
		"type":"VEC3",
		"componentType":5126,
		"count":15,
		"byteOffset":0,
		"min":[1.3744945526123047,
		0.2201848179101944,
		0.0],
		"max":[1.6724997758865357,
		0.4741170406341553,
		0.0]
	},
	{
		"bufferView":5,
		"type":"VEC3",
		"componentType":5126,
		"count":15,
		"byteOffset":12,
		"min":[0.0,
		0.0,
		1.0],
		"max":[0.0,
		0.0,
		1.0]
	},
	{
		"bufferView":5,
		"type":"VEC2",
		"componentType":5126,
		"count":15,
		"byteOffset":24,
		"min":[0.0,
		0.0],
		"max":[1.0,
		0.8521062135696411]
	},
	{
		"bufferView":6,
		"type":"VEC3",
		"componentType":5126,
		"count":15,
		"byteOffset":0,
		"min":[-0.17306417226791383,
		0.0,
		0.0],
		"max":[0.07556484639644623,
		0.0,
		0.0]
	},
	{
		"bufferView":7,
		"type":"VEC3",
		"componentType":5126,
		"count":15,
		"byteOffset":0,
		"min":[0.0,
		-0.12696610391139985,
		0.0],
		"max":[0.0,
		0.12696610391139985,
		0.0]
	},
	{
		"bufferView":8,
		"type":"VEC3",
		"componentType":5126,
		"count":15,
		"byteOffset":0,
		"min":[0.0,
		0.0,
		0.0],
		"max":[0.0,
		0.0,
		0.0]
	},
	{
		"bufferView":9,
		"type":"SCALAR",
		"componentType":5126,
		"count":3,
		"byteOffset":0,
		"min":[0.0],
		"max":[1.5]
	},
	{
		"bufferView":9,
		"type":"SCALAR",
		"componentType":5126,
		"count":9,
		"byteOffset":12,
		"min":[0.0],
		"max":[1.0]
	},
	{
		"bufferView":10,
		"type":"SCALAR",
		"componentType":5123,
		"count":357,
		"byteOffset":0,
		"min":[0],
		"max":[118]
	},
	{
		"bufferView":11,
		"type":"VEC3",
		"componentType":5126,
		"count":119,
		"byteOffset":0,
		"min":[1.1688098907470704,
		0.2201848179101944,
		0.0],
		"max":[1.355085849761963,
		0.4741170406341553,
		0.0]
	},
	{
		"bufferView":11,
		"type":"VEC3",
		"componentType":5126,
		"count":119,
		"byteOffset":12,
		"min":[0.0,
		0.0,
		1.0],
		"max":[0.0,
		0.0,
		1.0]
	},
	{
		"bufferView":11,
		"type":"VEC2",
		"componentType":5126,
		"count":119,
		"byteOffset":24,
		"min":[0.0,
		0.0],
		"max":[0.7335654497146606,
		1.0]
	},
	{
		"bufferView":12,
		"type":"VEC3",
		"componentType":5126,
		"count":119,
		"byteOffset":0,
		"min":[-0.04876786470413208,
		0.0,
		0.0],
		"max":[0.08825871348381043,
		0.0,
		0.0]
	},
	{
		"bufferView":13,
		"type":"VEC3",
		"componentType":5126,
		"count":119,
		"byteOffset":0,
		"min":[0.0,
		-0.12696610391139985,
		0.0],
		"max":[0.0,
		0.12696610391139985,
		0.0]
	},
	{
		"bufferView":14,
		"type":"VEC3",
		"componentType":5126,
		"count":119,
		"byteOffset":0,
		"min":[0.0,
		0.0,
		0.0],
		"max":[0.0,
		0.0,
		0.0]
	},
	{
		"bufferView":15,
		"type":"SCALAR",
		"componentType":5126,
		"count":3,
		"byteOffset":0,
		"min":[0.0],
		"max":[1.5]
	},
	{
		"bufferView":15,
		"type":"SCALAR",
		"componentType":5126,
		"count":9,
		"byteOffset":12,
		"min":[0.0],
		"max":[1.0]
	},
	{
		"bufferView":16,
		"type":"SCALAR",
		"componentType":5123,
		"count":384,
		"byteOffset":0,
		"min":[0],
		"max":[127]
	},
	{
		"bufferView":17,
		"type":"VEC3",
		"componentType":5126,
		"count":128,
		"byteOffset":0,
		"min":[0.9562351703643799,
		0.22018329799175263,
		0.0],
		"max":[1.1477704048156739,
		0.4735403060913086,
		0.0]
	},
	{
		"bufferView":17,
		"type":"VEC3",
		"componentType":5126,
		"count":128,
		"byteOffset":12,
		"min":[0.0,
		0.0,
		1.0],
		"max":[0.0,
		0.0,
		1.0]
	},
	{
		"bufferView":17,
		"type":"VEC2",
		"componentType":5126,
		"count":128,
		"byteOffset":24,
		"min":[0.0,
		0.0],
		"max":[0.7559897303581238,
		1.0]
	},
	{
		"bufferView":18,
		"type":"VEC3",
		"componentType":5126,
		"count":128,
		"byteOffset":0,
		"min":[-0.02775031514465809,
		-0.104814812541008,
		0.0],
		"max":[0.02775031514465809,
		0.10533402860164643,
		0.0]
	},
	{
		"bufferView":19,
		"type":"VEC3",
		"componentType":5126,
		"count":128,
		"byteOffset":0,
		"min":[0.0,
		-0.12691211700439454,
		0.0],
		"max":[0.0,
		0.12691211700439454,
		0.0]
	},
	{
		"bufferView":20,
		"type":"VEC3",
		"componentType":5126,
		"count":128,
		"byteOffset":0,
		"min":[0.0,
		0.0,
		0.0],
		"max":[0.0,
		0.0,
		0.0]
	},
	{
		"bufferView":21,
		"type":"SCALAR",
		"componentType":5126,
		"count":3,
		"byteOffset":0,
		"min":[0.0],
		"max":[1.5]
	},
	{
		"bufferView":21,
		"type":"SCALAR",
		"componentType":5126,
		"count":9,
		"byteOffset":12,
		"min":[0.0],
		"max":[1.0]
	},
	{
		"bufferView":22,
		"type":"SCALAR",
		"componentType":5123,
		"count":63,
		"byteOffset":0,
		"min":[0],
		"max":[22]
	},
	{
		"bufferView":23,
		"type":"VEC3",
		"componentType":5126,
		"count":23,
		"byteOffset":0,
		"min":[0.5133046507835388,
		0.2201848179101944,
		0.0],
		"max":[0.9462584853172302,
		0.4741170406341553,
		0.0]
	},
	{
		"bufferView":23,
		"type":"VEC3",
		"componentType":5126,
		"count":23,
		"byteOffset":12,
		"min":[0.0,
		0.0,
		1.0],
		"max":[0.0,
		0.0,
		1.0]
	},
	{
		"bufferView":23,
		"type":"VEC2",
		"componentType":5126,
		"count":23,
		"byteOffset":24,
		"min":[0.0,
		0.0],
		"max":[1.0,
		0.5865110158920288]
	},
	{
		"bufferView":24,
		"type":"VEC3",
		"componentType":5126,
		"count":23,
		"byteOffset":0,
		"min":[-0.07313541322946549,
		0.0,
		0.0],
		"max":[0.06587263196706772,
		0.0,
		0.0]
	},
	{
		"bufferView":25,
		"type":"VEC3",
		"componentType":5126,
		"count":23,
		"byteOffset":0,
		"min":[0.0,
		-0.12696610391139985,
		0.0],
		"max":[0.0,
		0.12696610391139985,
		0.0]
	},
	{
		"bufferView":26,
		"type":"VEC3",
		"componentType":5126,
		"count":23,
		"byteOffset":0,
		"min":[0.0,
		0.0,
		0.0],
		"max":[0.0,
		0.0,
		0.0]
	},
	{
		"bufferView":27,
		"type":"SCALAR",
		"componentType":5126,
		"count":3,
		"byteOffset":0,
		"min":[0.0],
		"max":[1.5]
	},
	{
		"bufferView":27,
		"type":"SCALAR",
		"componentType":5126,
		"count":9,
		"byteOffset":12,
		"min":[0.0],
		"max":[1.0]
	},
	{
		"bufferView":28,
		"type":"SCALAR",
		"componentType":5123,
		"count":18,
		"byteOffset":0,
		"min":[0],
		"max":[7]
	},
	{
		"bufferView":29,
		"type":"VEC3",
		"componentType":5126,
		"count":8,
		"byteOffset":0,
		"min":[0.7924473881721497,
		0.5297391414642334,
		0.0],
		"max":[1.0637916326522828,
		0.7836713194847107,
		0.0]
	},
	{
		"bufferView":29,
		"type":"VEC3",
		"componentType":5126,
		"count":8,
		"byteOffset":12,
		"min":[0.0,
		0.0,
		1.0],
		"max":[0.0,
		0.0,
		1.0]
	},
	{
		"bufferView":29,
		"type":"VEC2",
		"componentType":5126,
		"count":8,
		"byteOffset":24,
		"min":[0.0,
		0.0],
		"max":[1.0,
		0.9358304738998413]
	},
	{
		"bufferView":30,
		"type":"VEC3",
		"componentType":5126,
		"count":8,
		"byteOffset":0,
		"min":[-0.07825716584920883,
		0.0,
		0.0],
		"max":[0.07882588356733322,
		0.0,
		0.0]
	},
	{
		"bufferView":31,
		"type":"VEC3",
		"componentType":5126,
		"count":8,
		"byteOffset":0,
		"min":[0.0,
		-0.12696610391139985,
		0.0],
		"max":[0.0,
		0.12696610391139985,
		0.0]
	},
	{
		"bufferView":32,
		"type":"VEC3",
		"componentType":5126,
		"count":8,
		"byteOffset":0,
		"min":[0.0,
		0.0,
		0.0],
		"max":[0.0,
		0.0,
		0.0]
	},
	{
		"bufferView":33,
		"type":"SCALAR",
		"componentType":5126,
		"count":3,
		"byteOffset":0,
		"min":[0.0],
		"max":[1.5]
	},
	{
		"bufferView":33,
		"type":"SCALAR",
		"componentType":5126,
		"count":9,
		"byteOffset":12,
		"min":[0.0],
		"max":[1.0]
	},
	{
		"bufferView":34,
		"type":"SCALAR",
		"componentType":5123,
		"count":48,
		"byteOffset":0,
		"min":[0],
		"max":[17]
	},
	{
		"bufferView":35,
		"type":"VEC3",
		"componentType":5126,
		"count":18,
		"byteOffset":0,
		"min":[0.6146948337554932,
		0.5297391414642334,
		0.0],
		"max":[0.7888212203979492,
		0.7836713194847107,
		0.0]
	},
	{
		"bufferView":35,
		"type":"VEC3",
		"componentType":5126,
		"count":18,
		"byteOffset":12,
		"min":[0.0,
		0.0,
		1.0],
		"max":[0.0,
		0.0,
		1.0]
	},
	{
		"bufferView":35,
		"type":"VEC2",
		"componentType":5126,
		"count":18,
		"byteOffset":24,
		"min":[0.0,
		0.0],
		"max":[0.6857197880744934,
		1.0]
	},
	{
		"bufferView":36,
		"type":"VEC3",
		"componentType":5126,
		"count":18,
		"byteOffset":0,
		"min":[-0.06003997474908829,
		0.0,
		0.0],
		"max":[0.06065574660897255,
		0.0,
		0.0]
	},
	{
		"bufferView":37,
		"type":"VEC3",
		"componentType":5126,
		"count":18,
		"byteOffset":0,
		"min":[0.0,
		-0.12696610391139985,
		0.0],
		"max":[0.0,
		0.12696610391139985,
		0.0]
	},
	{
		"bufferView":38,
		"type":"VEC3",
		"componentType":5126,
		"count":18,
		"byteOffset":0,
		"min":[0.0,
		0.0,
		0.0],
		"max":[0.0,
		0.0,
		0.0]
	},
	{
		"bufferView":39,
		"type":"SCALAR",
		"componentType":5126,
		"count":3,
		"byteOffset":0,
		"min":[0.0],
		"max":[1.5]
	},
	{
		"bufferView":39,
		"type":"SCALAR",
		"componentType":5126,
		"count":9,
		"byteOffset":12,
		"min":[0.0],
		"max":[1.0]
	},
	{
		"bufferView":40,
		"type":"SCALAR",
		"componentType":5123,
		"count":30,
		"byteOffset":0,
		"min":[0],
		"max":[11]
	},
	{
		"bufferView":41,
		"type":"VEC3",
		"componentType":5126,
		"count":12,
		"byteOffset":0,
		"min":[0.46143022179603579,
		0.5297391414642334,
		0.0],
		"max":[0.6068975329399109,
		0.7836713194847107,
		0.0]
	},
	{
		"bufferView":41,
		"type":"VEC3",
		"componentType":5126,
		"count":12,
		"byteOffset":12,
		"min":[0.0,
		0.0,
		1.0],
		"max":[0.0,
		0.0,
		1.0]
	},
	{
		"bufferView":41,
		"type":"VEC2",
		"componentType":5126,
		"count":12,
		"byteOffset":24,
		"min":[0.0,
		0.0],
		"max":[0.5728589296340942,
		1.0]
	},
	{
		"bufferView":42,
		"type":"VEC3",
		"componentType":5126,
		"count":12,
		"byteOffset":0,
		"min":[-0.0001704771420918405,
		0.0,
		0.0],
		"max":[0.07927435636520386,
		0.0,
		0.0]
	},
	{
		"bufferView":43,
		"type":"VEC3",
		"componentType":5126,
		"count":12,
		"byteOffset":0,
		"min":[0.0,
		-0.12696610391139985,
		0.0],
		"max":[0.0,
		0.12696610391139985,
		0.0]
	},
	{
		"bufferView":44,
		"type":"VEC3",
		"componentType":5126,
		"count":12,
		"byteOffset":0,
		"min":[0.0,
		0.0,
		0.0],
		"max":[0.0,
		0.0,
		0.0]
	},
	{
		"bufferView":45,
		"type":"SCALAR",
		"componentType":5126,
		"count":3,
		"byteOffset":0,
		"min":[0.0],
		"max":[1.5]
	},
	{
		"bufferView":45,
		"type":"SCALAR",
		"componentType":5126,
		"count":9,
		"byteOffset":12,
		"min":[0.0],
		"max":[1.0]
	},
	{
		"bufferView":46,
		"type":"SCALAR",
		"componentType":5123,
		"count":42,
		"byteOffset":0,
		"min":[0],
		"max":[15]
	},
	{
		"bufferView":47,
		"type":"VEC3",
		"componentType":5126,
		"count":16,
		"byteOffset":0,
		"min":[0.19135478138923646,
		0.5297391414642334,
		0.0],
		"max":[0.43132004141807558,
		0.7836713194847107,
		0.0]
	},
	{
		"bufferView":47,
		"type":"VEC3",
		"componentType":5126,
		"count":16,
		"byteOffset":12,
		"min":[0.0,
		0.0,
		1.0],
		"max":[0.0,
		0.0,
		1.0]
	},
	{
		"bufferView":47,
		"type":"VEC2",
		"componentType":5126,
		"count":16,
		"byteOffset":24,
		"min":[0.0,
		0.0],
		"max":[0.9449973702430725,
		1.0]
	},
	{
		"bufferView":48,
		"type":"VEC3",
		"componentType":5126,
		"count":16,
		"byteOffset":0,
		"min":[-0.07708590477705002,
		0.0,
		0.0],
		"max":[0.07708590477705002,
		0.0,
		0.0]
	},
	{
		"bufferView":49,
		"type":"VEC3",
		"componentType":5126,
		"count":16,
		"byteOffset":0,
		"min":[0.0,
		-0.12696610391139985,
		0.0],
		"max":[0.0,
		0.12696610391139985,
		0.0]
	},
	{
		"bufferView":50,
		"type":"VEC3",
		"componentType":5126,
		"count":16,
		"byteOffset":0,
		"min":[0.0,
		0.0,
		0.0],
		"max":[0.0,
		0.0,
		0.0]
	},
	{
		"bufferView":51,
		"type":"SCALAR",
		"componentType":5126,
		"count":3,
		"byteOffset":0,
		"min":[0.0],
		"max":[1.5]
	},
	{
		"bufferView":51,
		"type":"SCALAR",
		"componentType":5126,
		"count":9,
		"byteOffset":12,
		"min":[0.0],
		"max":[1.0]
	}],
	"bufferViews":[{
		"buffer":0,
		"byteOffset":0,
		"byteLength":12,
		"target":34963
	},
	{
		"buffer":0,
		"byteOffset":12,
		"byteLength":128,
		"target":34962,
		"byteStride":32
	},
	{
		"buffer":1,
		"byteOffset":0,
		"byteLength":12,
		"target":34963
	},
	{
		"buffer":1,
		"byteOffset":12,
		"byteLength":128,
		"target":34962,
		"byteStride":32
	},
	{
		"buffer":2,
		"byteOffset":0,
		"byteLength":78,
		"target":34963
	},
	{
		"buffer":2,
		"byteOffset":80,
		"byteLength":480,
		"target":34962,
		"byteStride":32
	},
	{
		"buffer":2,
		"byteOffset":560,
		"byteLength":180,
		"target":34962
	},
	{
		"buffer":2,
		"byteOffset":740,
		"byteLength":180,
		"target":34962
	},
	{
		"buffer":2,
		"byteOffset":920,
		"byteLength":180,
		"target":34962
	},
	{
		"buffer":3,
		"byteOffset":0,
		"byteLength":48
	},
	{
		"buffer":4,
		"byteOffset":0,
		"byteLength":714,
		"target":34963
	},
	{
		"buffer":4,
		"byteOffset":716,
		"byteLength":3808,
		"target":34962,
		"byteStride":32
	},
	{
		"buffer":4,
		"byteOffset":4524,
		"byteLength":1428,
		"target":34962
	},
	{
		"buffer":4,
		"byteOffset":5952,
		"byteLength":1428,
		"target":34962
	},
	{
		"buffer":4,
		"byteOffset":7380,
		"byteLength":1428,
		"target":34962
	},
	{
		"buffer":5,
		"byteOffset":0,
		"byteLength":48
	},
	{
		"buffer":6,
		"byteOffset":0,
		"byteLength":768,
		"target":34963
	},
	{
		"buffer":6,
		"byteOffset":768,
		"byteLength":4096,
		"target":34962,
		"byteStride":32
	},
	{
		"buffer":6,
		"byteOffset":4864,
		"byteLength":1536,
		"target":34962
	},
	{
		"buffer":6,
		"byteOffset":6400,
		"byteLength":1536,
		"target":34962
	},
	{
		"buffer":6,
		"byteOffset":7936,
		"byteLength":1536,
		"target":34962
	},
	{
		"buffer":7,
		"byteOffset":0,
		"byteLength":48
	},
	{
		"buffer":8,
		"byteOffset":0,
		"byteLength":126,
		"target":34963
	},
	{
		"buffer":8,
		"byteOffset":128,
		"byteLength":736,
		"target":34962,
		"byteStride":32
	},
	{
		"buffer":8,
		"byteOffset":864,
		"byteLength":276,
		"target":34962
	},
	{
		"buffer":8,
		"byteOffset":1140,
		"byteLength":276,
		"target":34962
	},
	{
		"buffer":8,
		"byteOffset":1416,
		"byteLength":276,
		"target":34962
	},
	{
		"buffer":9,
		"byteOffset":0,
		"byteLength":48
	},
	{
		"buffer":10,
		"byteOffset":0,
		"byteLength":36,
		"target":34963
	},
	{
		"buffer":10,
		"byteOffset":36,
		"byteLength":256,
		"target":34962,
		"byteStride":32
	},
	{
		"buffer":10,
		"byteOffset":292,
		"byteLength":96,
		"target":34962
	},
	{
		"buffer":10,
		"byteOffset":388,
		"byteLength":96,
		"target":34962
	},
	{
		"buffer":10,
		"byteOffset":484,
		"byteLength":96,
		"target":34962
	},
	{
		"buffer":11,
		"byteOffset":0,
		"byteLength":48
	},
	{
		"buffer":12,
		"byteOffset":0,
		"byteLength":96,
		"target":34963
	},
	{
		"buffer":12,
		"byteOffset":96,
		"byteLength":576,
		"target":34962,
		"byteStride":32
	},
	{
		"buffer":12,
		"byteOffset":672,
		"byteLength":216,
		"target":34962
	},
	{
		"buffer":12,
		"byteOffset":888,
		"byteLength":216,
		"target":34962
	},
	{
		"buffer":12,
		"byteOffset":1104,
		"byteLength":216,
		"target":34962
	},
	{
		"buffer":13,
		"byteOffset":0,
		"byteLength":48
	},
	{
		"buffer":14,
		"byteOffset":0,
		"byteLength":60,
		"target":34963
	},
	{
		"buffer":14,
		"byteOffset":60,
		"byteLength":384,
		"target":34962,
		"byteStride":32
	},
	{
		"buffer":14,
		"byteOffset":444,
		"byteLength":144,
		"target":34962
	},
	{
		"buffer":14,
		"byteOffset":588,
		"byteLength":144,
		"target":34962
	},
	{
		"buffer":14,
		"byteOffset":732,
		"byteLength":144,
		"target":34962
	},
	{
		"buffer":15,
		"byteOffset":0,
		"byteLength":48
	},
	{
		"buffer":16,
		"byteOffset":0,
		"byteLength":84,
		"target":34963
	},
	{
		"buffer":16,
		"byteOffset":84,
		"byteLength":512,
		"target":34962,
		"byteStride":32
	},
	{
		"buffer":16,
		"byteOffset":596,
		"byteLength":192,
		"target":34962
	},
	{
		"buffer":16,
		"byteOffset":788,
		"byteLength":192,
		"target":34962
	},
	{
		"buffer":16,
		"byteOffset":980,
		"byteLength":192,
		"target":34962
	},
	{
		"buffer":17,
		"byteOffset":0,
		"byteLength":48
	}],
	"buffers":[{
		"uri":"data:application/octet-stream;base64,",
		"byteLength":140
	},
	{
		"uri":"data:application/octet-stream;base64,",
		"byteLength":140
	},
	{
		"uri":"data:application/octet-stream;base64,",
		"byteLength":1100
	},
	{
		"uri":"data:application/octet-stream;base64,",
		"byteLength":48
	},
	{
		"uri":"data:application/octet-stream;base64,",
		"byteLength":8808
	},
	{
		"uri":"data:application/octet-stream;base64,",
		"byteLength":48
	},
	{
		"uri":"data:application/octet-stream;base64,",
		"byteLength":9472
	},
	{
		"uri":"data:application/octet-stream;base64,",
		"byteLength":48
	},
	{
		"uri":"data:application/octet-stream;base64,",
		"byteLength":1692
	},
	{
		"uri":"data:application/octet-stream;base64,",
		"byteLength":48
	},
	{
		"uri":"data:application/octet-stream;base64,",
		"byteLength":580
	},
	{
		"uri":"data:application/octet-stream;base64,",
		"byteLength":48
	},
	{
		"uri":"data:application/octet-stream;base64,",
		"byteLength":1320
	},
	{
		"uri":"data:application/octet-stream;base64,",
		"byteLength":48
	},
	{
		"uri":"data:application/octet-stream;base64,",
		"byteLength":876
	},
	{
		"uri":"data:application/octet-stream;base64,",
		"byteLength":48
	},
	{
		"uri":"data:application/octet-stream;base64,",
		"byteLength":1172
	},
	{
		"uri":"data:application/octet-stream;base64,",
		"byteLength":48
	}],
	"animations":[{
		"samplers":[{
			"input":15,
			"interpolation":"LINEAR",
			"output":16
		},
		{
			"input":24,
			"interpolation":"LINEAR",
			"output":25
		},
		{
			"input":33,
			"interpolation":"LINEAR",
			"output":34
		},
		{
			"input":42,
			"interpolation":"LINEAR",
			"output":43
		},
		{
			"input":51,
			"interpolation":"LINEAR",
			"output":52
		},
		{
			"input":60,
			"interpolation":"LINEAR",
			"output":61
		},
		{
			"input":69,
			"interpolation":"LINEAR",
			"output":70
		},
		{
			"input":78,
			"interpolation":"LINEAR",
			"output":79
		}],
		"channels":[{
			"sampler":0,
			"target":{
				"node":3,
				"path":"weights"
			}
		},
		{
			"sampler":1,
			"target":{
				"node":4,
				"path":"weights"
			}
		},
		{
			"sampler":2,
			"target":{
				"node":5,
				"path":"weights"
			}
		},
		{
			"sampler":3,
			"target":{
				"node":6,
				"path":"weights"
			}
		},
		{
			"sampler":4,
			"target":{
				"node":7,
				"path":"weights"
			}
		},
		{
			"sampler":5,
			"target":{
				"node":8,
				"path":"weights"
			}
		},
		{
			"sampler":6,
			"target":{
				"node":9,
				"path":"weights"
			}
		},
		{
			"sampler":7,
			"target":{
				"node":10,
				"path":"weights"
			}
		}]
	}]
}