{
	"asset":{
		"version":"2.0",
		"generator":""
	},
	"scenes":[{
		"nodes":[0]
	}],
	"nodes":[{
		"name":"Layer 1",
		"translation":[0.11395595967769623,
		0.0011942085111513734,
		0.0],
		"rotation":[0.0,
		0.0,
		0.0,
		-1.0],
		"scale":[0.055148739367723468,
		0.055148739367723468,
		0.055148739367723468],
		"children":[1,
		2,
		3,
		4,
		5]
	},
	{
		"name":"S",
		"mesh":0,
		"translation":[-24.633411407470704,
		-14.302042007446289,
		0.0],
		"rotation":[0.0,
		0.0,
		0.0,
		-1.0],
		"scale":[1.0,
		1.0,
		1.0]
	},
	{
		"name":"K",
		"mesh":1,
		"translation":[-24.633411407470704,
		-14.302042007446289,
		0.0],
		"rotation":[0.0,
		0.0,
		0.0,
		-1.0],
		"scale":[1.0,
		1.0,
		1.0]
	},
	{
		"name":"R",
		"mesh":2,
		"translation":[-24.633411407470704,
		-14.302042007446289,
		0.0],
		"rotation":[0.0,
		0.0,
		0.0,
		-1.0],
		"scale":[1.0,
		1.0,
		1.0]
	},
	{
		"name":"O",
		"mesh":3,
		"translation":[-24.633411407470704,
		-14.302042007446289,
		0.0],
		"rotation":[0.0,
		0.0,
		0.0,
		-1.0],
		"scale":[1.0,
		1.0,
		1.0]
	},
	{
		"name":"W",
		"mesh":4,
		"translation":[-24.633411407470704,
		-14.302042007446289,
		0.0],
		"rotation":[0.0,
		0.0,
		0.0,
		-1.0],
		"scale":[1.0,
		1.0,
		1.0]
	}],
	"meshes":[{
		"name":"S",
		"primitives":[{
			"indices":0,
			"targets":[{
				"POSITION":4
			},
			{
				"POSITION":5
			},
			{
				"POSITION":6
			}],
			"attributes":{
				"POSITION":1,
				"NORMAL":2,
				"TEXCOORD_0":3
			}
		}],
		"extras":{
			"targetNames":["Pose.0",
			"Pose.1",
			"Pose.2"]
		},
		"weights":[0.0,
		0.0,
		1.0]
	},
	{
		"name":"K",
		"primitives":[{
			"indices":9,
			"targets":[{
				"POSITION":13
			},
			{
				"POSITION":14
			},
			{
				"POSITION":15
			}],
			"attributes":{
				"POSITION":10,
				"NORMAL":11,
				"TEXCOORD_0":12
			}
		}],
		"extras":{
			"targetNames":["Pose.0",
			"Pose.1",
			"Pose.2"]
		},
		"weights":[0.0,
		0.0,
		1.0]
	},
	{
		"name":"R",
		"primitives":[{
			"indices":18,
			"targets":[{
				"POSITION":22
			},
			{
				"POSITION":23
			},
			{
				"POSITION":24
			}],
			"attributes":{
				"POSITION":19,
				"NORMAL":20,
				"TEXCOORD_0":21
			}
		}],
		"extras":{
			"targetNames":["Pose.0",
			"Pose.1",
			"Pose.2"]
		},
		"weights":[0.0,
		0.0,
		1.0]
	},
	{
		"name":"O",
		"primitives":[{
			"indices":27,
			"targets":[{
				"POSITION":31
			},
			{
				"POSITION":32
			},
			{
				"POSITION":33
			}],
			"attributes":{
				"POSITION":28,
				"NORMAL":29,
				"TEXCOORD_0":30
			}
		}],
		"extras":{
			"targetNames":["Pose.0",
			"Pose.1",
			"Pose.2"]
		},
		"weights":[0.0,
		0.0,
		1.0]
	},
	{
		"name":"W",
		"primitives":[{
			"indices":36,
			"targets":[{
				"POSITION":40
			},
			{
				"POSITION":41
			},
			{
				"POSITION":42
			}],
			"attributes":{
				"POSITION":37,
				"NORMAL":38,
				"TEXCOORD_0":39
			}
		}],
		"extras":{
			"targetNames":["Pose.0",
			"Pose.1",
			"Pose.2"]
		},
		"weights":[0.0,
		0.0,
		1.0]
	}],
	"accessors":[{
		"bufferView":0,
		"type":"SCALAR",
		"componentType":5123,
		"count":540,
		"byteOffset":0,
		"min":[0],
		"max":[181]
	},
	{
		"bufferView":1,
		"type":"VEC3",
		"componentType":5126,
		"count":182,
		"byteOffset":0,
		"min":[35.773250579833987,
		10.442225456237793,
		0.0],
		"max":[44.69263458251953,
		18.132780075073243,
		0.0]
	},
	{
		"bufferView":1,
		"type":"VEC3",
		"componentType":5126,
		"count":182,
		"byteOffset":12,
		"min":[0.0,
		0.0,
		1.0],
		"max":[0.0,
		0.0,
		1.0]
	},
	{
		"bufferView":1,
		"type":"VEC2",
		"componentType":5126,
		"count":182,
		"byteOffset":24,
		"min":[0.0,
		0.0],
		"max":[1.0,
		0.8622292280197144]
	},
	{
		"bufferView":2,
		"type":"VEC3",
		"componentType":5126,
		"count":182,
		"byteOffset":0,
		"min":[-1.257723331451416,
		-2.925769329071045,
		0.0],
		"max":[1.257723331451416,
		2.8854434490203859,
		0.0]
	},
	{
		"bufferView":3,
		"type":"VEC3",
		"componentType":5126,
		"count":182,
		"byteOffset":0,
		"min":[0.0,
		-3.8507981300354006,
		0.0],
		"max":[0.0,
		3.8261795043945314,
		0.0]
	},
	{
		"bufferView":4,
		"type":"VEC3",
		"componentType":5126,
		"count":182,
		"byteOffset":0,
		"min":[0.0,
		0.0,
		0.0],
		"max":[0.0,
		0.0,
		0.0]
	},
	{
		"bufferView":5,
		"type":"SCALAR",
		"componentType":5126,
		"count":3,
		"byteOffset":0,
		"min":[0.0],
		"max":[1.5]
	},
	{
		"bufferView":5,
		"type":"SCALAR",
		"componentType":5126,
		"count":9,
		"byteOffset":12,
		"min":[0.0],
		"max":[1.0]
	},
	{
		"bufferView":6,
		"type":"SCALAR",
		"componentType":5123,
		"count":39,
		"byteOffset":0,
		"min":[0],
		"max":[14]
	},
	{
		"bufferView":7,
		"type":"VEC3",
		"componentType":5126,
		"count":15,
		"byteOffset":0,
		"min":[29.93494987487793,
		10.427994728088379,
		0.0],
		"max":[35.44364547729492,
		18.117103576660158,
		0.0]
	},
	{
		"bufferView":7,
		"type":"VEC3",
		"componentType":5126,
		"count":15,
		"byteOffset":12,
		"min":[0.0,
		0.0,
		1.0],
		"max":[0.0,
		0.0,
		1.0]
	},
	{
		"bufferView":7,
		"type":"VEC2",
		"componentType":5126,
		"count":15,
		"byteOffset":24,
		"min":[0.0,
		0.0],
		"max":[0.7164283394813538,
		1.0]
	},
	{
		"bufferView":8,
		"type":"VEC3",
		"componentType":5126,
		"count":15,
		"byteOffset":0,
		"min":[-3.21055269241333,
		0.0,
		0.0],
		"max":[1.4719122648239136,
		0.0,
		0.0]
	},
	{
		"bufferView":9,
		"type":"VEC3",
		"componentType":5126,
		"count":15,
		"byteOffset":0,
		"min":[0.0,
		-3.8445544242858888,
		0.0],
		"max":[0.0,
		3.8445544242858888,
		0.0]
	},
	{
		"bufferView":10,
		"type":"VEC3",
		"componentType":5126,
		"count":15,
		"byteOffset":0,
		"min":[0.0,
		0.0,
		0.0],
		"max":[0.0,
		0.0,
		0.0]
	},
	{
		"bufferView":11,
		"type":"SCALAR",
		"componentType":5126,
		"count":3,
		"byteOffset":0,
		"min":[0.0],
		"max":[1.5]
	},
	{
		"bufferView":11,
		"type":"SCALAR",
		"componentType":5126,
		"count":9,
		"byteOffset":12,
		"min":[0.0],
		"max":[1.0]
	},
	{
		"bufferView":12,
		"type":"SCALAR",
		"componentType":5123,
		"count":342,
		"byteOffset":0,
		"min":[0],
		"max":[113]
	},
	{
		"bufferView":13,
		"type":"VEC3",
		"componentType":5126,
		"count":114,
		"byteOffset":0,
		"min":[20.4223690032959,
		10.427997589111329,
		0.0],
		"max":[29.490062713623048,
		18.117107391357423,
		0.0]
	},
	{
		"bufferView":13,
		"type":"VEC3",
		"componentType":5126,
		"count":114,
		"byteOffset":12,
		"min":[0.0,
		0.0,
		1.0],
		"max":[0.0,
		0.0,
		1.0]
	},
	{
		"bufferView":13,
		"type":"VEC2",
		"componentType":5126,
		"count":114,
		"byteOffset":24,
		"min":[0.0,
		0.0],
		"max":[1.0,
		0.8479673862457275]
	},
	{
		"bufferView":14,
		"type":"VEC3",
		"componentType":5126,
		"count":114,
		"byteOffset":0,
		"min":[-2.026744842529297,
		0.0,
		0.0],
		"max":[4.509845733642578,
		0.0,
		0.0]
	},
	{
		"bufferView":15,
		"type":"VEC3",
		"componentType":5126,
		"count":114,
		"byteOffset":0,
		"min":[0.0,
		-3.8445544242858888,
		0.0],
		"max":[0.0,
		3.8445544242858888,
		0.0]
	},
	{
		"bufferView":16,
		"type":"VEC3",
		"componentType":5126,
		"count":114,
		"byteOffset":0,
		"min":[0.0,
		0.0,
		0.0],
		"max":[0.0,
		0.0,
		0.0]
	},
	{
		"bufferView":17,
		"type":"SCALAR",
		"componentType":5126,
		"count":3,
		"byteOffset":0,
		"min":[0.0],
		"max":[1.5]
	},
	{
		"bufferView":17,
		"type":"SCALAR",
		"componentType":5126,
		"count":9,
		"byteOffset":12,
		"min":[0.0],
		"max":[1.0]
	},
	{
		"bufferView":18,
		"type":"SCALAR",
		"componentType":5123,
		"count":384,
		"byteOffset":0,
		"min":[0],
		"max":[127]
	},
	{
		"bufferView":19,
		"type":"VEC3",
		"componentType":5126,
		"count":128,
		"byteOffset":0,
		"min":[13.853621482849121,
		10.45275592803955,
		0.0],
		"max":[19.65342903137207,
		18.122249603271486,
		0.0]
	},
	{
		"bufferView":19,
		"type":"VEC3",
		"componentType":5126,
		"count":128,
		"byteOffset":12,
		"min":[0.0,
		0.0,
		1.0],
		"max":[0.0,
		0.0,
		1.0]
	},
	{
		"bufferView":19,
		"type":"VEC2",
		"componentType":5126,
		"count":128,
		"byteOffset":24,
		"min":[0.0,
		0.0],
		"max":[0.7562177181243897,
		1.0]
	},
	{
		"bufferView":20,
		"type":"VEC3",
		"componentType":5126,
		"count":128,
		"byteOffset":0,
		"min":[-0.840316653251648,
		-3.196173906326294,
		0.0],
		"max":[0.840316653251648,
		3.1718387603759767,
		0.0]
	},
	{
		"bufferView":21,
		"type":"VEC3",
		"componentType":5126,
		"count":128,
		"byteOffset":0,
		"min":[0.0,
		-3.845076560974121,
		0.0],
		"max":[0.0,
		3.845076560974121,
		0.0]
	},
	{
		"bufferView":22,
		"type":"VEC3",
		"componentType":5126,
		"count":128,
		"byteOffset":0,
		"min":[0.0,
		0.0,
		0.0],
		"max":[0.0,
		0.0,
		0.0]
	},
	{
		"bufferView":23,
		"type":"SCALAR",
		"componentType":5126,
		"count":3,
		"byteOffset":0,
		"min":[0.0],
		"max":[1.5]
	},
	{
		"bufferView":23,
		"type":"SCALAR",
		"componentType":5126,
		"count":9,
		"byteOffset":12,
		"min":[0.0],
		"max":[1.0]
	},
	{
		"bufferView":24,
		"type":"SCALAR",
		"componentType":5123,
		"count":63,
		"byteOffset":0,
		"min":[0],
		"max":[22]
	},
	{
		"bufferView":25,
		"type":"VEC3",
		"componentType":5126,
		"count":23,
		"byteOffset":0,
		"min":[0.44151195883750918,
		10.427994728088379,
		0.0],
		"max":[13.551474571228028,
		18.117103576660158,
		0.0]
	},
	{
		"bufferView":25,
		"type":"VEC3",
		"componentType":5126,
		"count":23,
		"byteOffset":12,
		"min":[0.0,
		0.0,
		1.0],
		"max":[0.0,
		0.0,
		1.0]
	},
	{
		"bufferView":25,
		"type":"VEC2",
		"componentType":5126,
		"count":23,
		"byteOffset":24,
		"min":[0.0,
		0.0],
		"max":[1.0,
		0.5865087509155273]
	},
	{
		"bufferView":26,
		"type":"VEC3",
		"componentType":5126,
		"count":23,
		"byteOffset":0,
		"min":[-2.21122145652771,
		0.0,
		0.0],
		"max":[1.9875353574752808,
		0.0,
		0.0]
	},
	{
		"bufferView":27,
		"type":"VEC3",
		"componentType":5126,
		"count":23,
		"byteOffset":0,
		"min":[0.0,
		-3.8445544242858888,
		0.0],
		"max":[0.0,
		3.8445544242858888,
		0.0]
	},
	{
		"bufferView":28,
		"type":"VEC3",
		"componentType":5126,
		"count":23,
		"byteOffset":0,
		"min":[0.0,
		0.0,
		0.0],
		"max":[0.0,
		0.0,
		0.0]
	},
	{
		"bufferView":29,
		"type":"SCALAR",
		"componentType":5126,
		"count":3,
		"byteOffset":0,
		"min":[0.0],
		"max":[1.5]
	},
	{
		"bufferView":29,
		"type":"SCALAR",
		"componentType":5126,
		"count":9,
		"byteOffset":12,
		"min":[0.0],
		"max":[1.0]
	}],
	"bufferViews":[{
		"buffer":0,
		"byteOffset":0,
		"byteLength":1080,
		"target":34963
	},
	{
		"buffer":0,
		"byteOffset":1080,
		"byteLength":5824,
		"target":34962,
		"byteStride":32
	},
	{
		"buffer":0,
		"byteOffset":6904,
		"byteLength":2184,
		"target":34962
	},
	{
		"buffer":0,
		"byteOffset":9088,
		"byteLength":2184,
		"target":34962
	},
	{
		"buffer":0,
		"byteOffset":11272,
		"byteLength":2184,
		"target":34962
	},
	{
		"buffer":1,
		"byteOffset":0,
		"byteLength":48
	},
	{
		"buffer":2,
		"byteOffset":0,
		"byteLength":78,
		"target":34963
	},
	{
		"buffer":2,
		"byteOffset":80,
		"byteLength":480,
		"target":34962,
		"byteStride":32
	},
	{
		"buffer":2,
		"byteOffset":560,
		"byteLength":180,
		"target":34962
	},
	{
		"buffer":2,
		"byteOffset":740,
		"byteLength":180,
		"target":34962
	},
	{
		"buffer":2,
		"byteOffset":920,
		"byteLength":180,
		"target":34962
	},
	{
		"buffer":3,
		"byteOffset":0,
		"byteLength":48
	},
	{
		"buffer":4,
		"byteOffset":0,
		"byteLength":684,
		"target":34963
	},
	{
		"buffer":4,
		"byteOffset":684,
		"byteLength":3648,
		"target":34962,
		"byteStride":32
	},
	{
		"buffer":4,
		"byteOffset":4332,
		"byteLength":1368,
		"target":34962
	},
	{
		"buffer":4,
		"byteOffset":5700,
		"byteLength":1368,
		"target":34962
	},
	{
		"buffer":4,
		"byteOffset":7068,
		"byteLength":1368,
		"target":34962
	},
	{
		"buffer":5,
		"byteOffset":0,
		"byteLength":48
	},
	{
		"buffer":6,
		"byteOffset":0,
		"byteLength":768,
		"target":34963
	},
	{
		"buffer":6,
		"byteOffset":768,
		"byteLength":4096,
		"target":34962,
		"byteStride":32
	},
	{
		"buffer":6,
		"byteOffset":4864,
		"byteLength":1536,
		"target":34962
	},
	{
		"buffer":6,
		"byteOffset":6400,
		"byteLength":1536,
		"target":34962
	},
	{
		"buffer":6,
		"byteOffset":7936,
		"byteLength":1536,
		"target":34962
	},
	{
		"buffer":7,
		"byteOffset":0,
		"byteLength":48
	},
	{
		"buffer":8,
		"byteOffset":0,
		"byteLength":126,
		"target":34963
	},
	{
		"buffer":8,
		"byteOffset":128,
		"byteLength":736,
		"target":34962,
		"byteStride":32
	},
	{
		"buffer":8,
		"byteOffset":864,
		"byteLength":276,
		"target":34962
	},
	{
		"buffer":8,
		"byteOffset":1140,
		"byteLength":276,
		"target":34962
	},
	{
		"buffer":8,
		"byteOffset":1416,
		"byteLength":276,
		"target":34962
	},
	{
		"buffer":9,
		"byteOffset":0,
		"byteLength":48
	}],
	"buffers":[{
		"uri":"data:application/octet-stream;base64,",
		"byteLength":13456
	},
	{
		"uri":"data:application/octet-stream;base64,",
		"byteLength":48
	},
	{
		"uri":"data:application/octet-stream;base64,",
		"byteLength":1100
	},
	{
		"uri":"data:application/octet-stream;base64,",
		"byteLength":48
	},
	{
		"uri":"data:application/octet-stream;base64,",
		"byteLength":8436
	},
	{
		"uri":"data:application/octet-stream;base64,",
		"byteLength":48
	},
	{
		"uri":"data:application/octet-stream;base64,",
		"byteLength":9472
	},
	{
		"uri":"data:application/octet-stream;base64,",
		"byteLength":48
	},
	{
		"uri":"data:application/octet-stream;base64,",
		"byteLength":1692
	},
	{
		"uri":"data:application/octet-stream;base64,",
		"byteLength":48
	}],
	"animations":[{
		"samplers":[{
			"input":7,
			"interpolation":"LINEAR",
			"output":8
		},
		{
			"input":16,
			"interpolation":"LINEAR",
			"output":17
		},
		{
			"input":25,
			"interpolation":"LINEAR",
			"output":26
		},
		{
			"input":34,
			"interpolation":"LINEAR",
			"output":35
		},
		{
			"input":43,
			"interpolation":"LINEAR",
			"output":44
		}],
		"channels":[{
			"sampler":0,
			"target":{
				"node":1,
				"path":"weights"
			}
		},
		{
			"sampler":1,
			"target":{
				"node":2,
				"path":"weights"
			}
		},
		{
			"sampler":2,
			"target":{
				"node":3,
				"path":"weights"
			}
		},
		{
			"sampler":3,
			"target":{
				"node":4,
				"path":"weights"
			}
		},
		{
			"sampler":4,
			"target":{
				"node":5,
				"path":"weights"
			}
		}]
	}]
}