{
	"asset":{
		"version":"2.0",
		"generator":""
	},
	"scenes":[{
		"nodes":[0]
	}],
	"nodes":[{
		"name":"Layer 1",
		"translation":[-0.10862082988023758,
		-0.013355630449950695,
		0.0],
		"rotation":[0.0,
		0.0,
		0.0,
		-1.0],
		"scale":[0.0674896240234375,
		0.0674896240234375,
		0.0674896240234375],
		"children":[1,
		2,
		3,
		4,
		5,
		6]
	},
	{
		"name":"w",
		"mesh":0,
		"translation":[-17.071422576904298,
		-12.008099555969239,
		0.0],
		"rotation":[0.0,
		0.0,
		0.0,
		-1.0],
		"scale":[1.0,
		1.0,
		1.0]
	},
	{
		"name":"o",
		"mesh":1,
		"translation":[-17.071422576904298,
		-12.008099555969239,
		0.0],
		"rotation":[0.0,
		0.0,
		0.0,
		-1.0],
		"scale":[1.0,
		1.0,
		1.0]
	},
	{
		"name":"l",
		"mesh":2,
		"translation":[-17.071422576904298,
		-12.008099555969239,
		0.0],
		"rotation":[0.0,
		0.0,
		0.0,
		-1.0],
		"scale":[1.0,
		1.0,
		1.0]
	},
	{
		"name":"l",
		"mesh":3,
		"translation":[-17.071422576904298,
		-12.008099555969239,
		0.0],
		"rotation":[0.0,
		0.0,
		0.0,
		-1.0],
		"scale":[1.0,
		1.0,
		1.0]
	},
	{
		"name":"o",
		"mesh":4,
		"translation":[-17.071422576904298,
		-12.008099555969239,
		0.0],
		"rotation":[0.0,
		0.0,
		0.0,
		-1.0],
		"scale":[1.0,
		1.0,
		1.0]
	},
	{
		"name":"f",
		"mesh":5,
		"translation":[-17.071422576904298,
		-12.008099555969239,
		0.0],
		"rotation":[0.0,
		0.0,
		0.0,
		-1.0],
		"scale":[1.0,
		1.0,
		1.0]
	}],
	"meshes":[{
		"name":"w",
		"primitives":[{
			"indices":0,
			"targets":[{
				"POSITION":4
			},
			{
				"POSITION":5
			},
			{
				"POSITION":6
			}],
			"attributes":{
				"POSITION":1,
				"NORMAL":2,
				"TEXCOORD_0":3
			}
		}],
		"extras":{
			"targetNames":["Pose.0",
			"Pose.1",
			"Pose.2"]
		},
		"weights":[0.0,
		0.0,
		1.0]
	},
	{
		"name":"o",
		"primitives":[{
			"indices":9,
			"targets":[{
				"POSITION":13
			},
			{
				"POSITION":14
			},
			{
				"POSITION":15
			}],
			"attributes":{
				"POSITION":10,
				"NORMAL":11,
				"TEXCOORD_0":12
			}
		}],
		"extras":{
			"targetNames":["Pose.0",
			"Pose.1",
			"Pose.2"]
		},
		"weights":[0.0,
		0.0,
		1.0]
	},
	{
		"name":"l",
		"primitives":[{
			"indices":18,
			"targets":[{
				"POSITION":22
			},
			{
				"POSITION":23
			},
			{
				"POSITION":24
			}],
			"attributes":{
				"POSITION":19,
				"NORMAL":20,
				"TEXCOORD_0":21
			}
		}],
		"extras":{
			"targetNames":["Pose.0",
			"Pose.1",
			"Pose.2"]
		},
		"weights":[0.0,
		0.0,
		1.0]
	},
	{
		"name":"l",
		"primitives":[{
			"indices":27,
			"targets":[{
				"POSITION":31
			},
			{
				"POSITION":32
			},
			{
				"POSITION":33
			}],
			"attributes":{
				"POSITION":28,
				"NORMAL":29,
				"TEXCOORD_0":30
			}
		}],
		"extras":{
			"targetNames":["Pose.0",
			"Pose.1",
			"Pose.2"]
		},
		"weights":[0.0,
		0.0,
		1.0]
	},
	{
		"name":"o",
		"primitives":[{
			"indices":36,
			"targets":[{
				"POSITION":40
			},
			{
				"POSITION":41
			},
			{
				"POSITION":42
			}],
			"attributes":{
				"POSITION":37,
				"NORMAL":38,
				"TEXCOORD_0":39
			}
		}],
		"extras":{
			"targetNames":["Pose.0",
			"Pose.1",
			"Pose.2"]
		},
		"weights":[0.0,
		0.0,
		1.0]
	},
	{
		"name":"f",
		"primitives":[{
			"indices":45,
			"targets":[{
				"POSITION":49
			},
			{
				"POSITION":50
			},
			{
				"POSITION":51
			}],
			"attributes":{
				"POSITION":46,
				"NORMAL":47,
				"TEXCOORD_0":48
			}
		}],
		"extras":{
			"targetNames":["Pose.0",
			"Pose.1",
			"Pose.2"]
		},
		"weights":[0.0,
		0.0,
		1.0]
	}],
	"accessors":[{
		"bufferView":0,
		"type":"SCALAR",
		"componentType":5123,
		"count":63,
		"byteOffset":0,
		"min":[0],
		"max":[22]
	},
	{
		"bufferView":1,
		"type":"VEC3",
		"componentType":5126,
		"count":23,
		"byteOffset":0,
		"min":[25.000181198120118,
		9.695323944091797,
		0.0],
		"max":[33.56156921386719,
		14.716656684875489,
		0.0]
	},
	{
		"bufferView":1,
		"type":"VEC3",
		"componentType":5126,
		"count":23,
		"byteOffset":12,
		"min":[0.0,
		0.0,
		1.0],
		"max":[0.0,
		0.0,
		1.0]
	},
	{
		"bufferView":1,
		"type":"VEC2",
		"componentType":5126,
		"count":23,
		"byteOffset":24,
		"min":[0.0,
		0.0],
		"max":[1.0,
		0.5865092277526856]
	},
	{
		"bufferView":2,
		"type":"VEC3",
		"componentType":5126,
		"count":23,
		"byteOffset":0,
		"min":[-1.443440318107605,
		-3.552713678800501e-15,
		0.0],
		"max":[1.3050166368484498,
		-1.7763568394002506e-15,
		0.0]
	},
	{
		"bufferView":3,
		"type":"VEC3",
		"componentType":5126,
		"count":23,
		"byteOffset":0,
		"min":[-7.105427357601002e-15,
		-2.5106663703918459,
		0.0],
		"max":[0.0,
		2.5106663703918459,
		0.0]
	},
	{
		"bufferView":4,
		"type":"VEC3",
		"componentType":5126,
		"count":23,
		"byteOffset":0,
		"min":[0.0,
		0.0,
		0.0],
		"max":[0.0,
		0.0,
		0.0]
	},
	{
		"bufferView":5,
		"type":"SCALAR",
		"componentType":5126,
		"count":3,
		"byteOffset":0,
		"min":[0.0],
		"max":[1.5]
	},
	{
		"bufferView":5,
		"type":"SCALAR",
		"componentType":5126,
		"count":9,
		"byteOffset":12,
		"min":[0.0],
		"max":[1.0]
	},
	{
		"bufferView":6,
		"type":"SCALAR",
		"componentType":5123,
		"count":384,
		"byteOffset":0,
		"min":[0],
		"max":[127]
	},
	{
		"bufferView":7,
		"type":"VEC3",
		"componentType":5126,
		"count":128,
		"byteOffset":0,
		"min":[21.015575408935548,
		9.693475723266602,
		0.0],
		"max":[24.803068161010743,
		14.718505859375,
		0.0]
	},
	{
		"bufferView":7,
		"type":"VEC3",
		"componentType":5126,
		"count":128,
		"byteOffset":12,
		"min":[0.0,
		0.0,
		1.0],
		"max":[0.0,
		0.0,
		1.0]
	},
	{
		"bufferView":7,
		"type":"VEC2",
		"componentType":5126,
		"count":128,
		"byteOffset":24,
		"min":[0.0,
		0.0],
		"max":[0.7252669930458069,
		1.0]
	},
	{
		"bufferView":8,
		"type":"VEC3",
		"componentType":5126,
		"count":128,
		"byteOffset":0,
		"min":[-0.5487458109855652,
		-2.0769472122192385,
		0.0],
		"max":[0.5487458109855652,
		2.0820765495300295,
		0.0]
	},
	{
		"bufferView":9,
		"type":"VEC3",
		"componentType":5126,
		"count":128,
		"byteOffset":0,
		"min":[-7.105427357601002e-15,
		-2.512643337249756,
		0.0],
		"max":[-3.552713678800501e-15,
		2.512643337249756,
		0.0]
	},
	{
		"bufferView":10,
		"type":"VEC3",
		"componentType":5126,
		"count":128,
		"byteOffset":0,
		"min":[0.0,
		0.0,
		0.0],
		"max":[0.0,
		0.0,
		0.0]
	},
	{
		"bufferView":11,
		"type":"SCALAR",
		"componentType":5126,
		"count":3,
		"byteOffset":0,
		"min":[0.0],
		"max":[1.5]
	},
	{
		"bufferView":11,
		"type":"SCALAR",
		"componentType":5126,
		"count":9,
		"byteOffset":12,
		"min":[0.0],
		"max":[1.0]
	},
	{
		"bufferView":12,
		"type":"SCALAR",
		"componentType":5123,
		"count":12,
		"byteOffset":0,
		"min":[0],
		"max":[5]
	},
	{
		"bufferView":13,
		"type":"VEC3",
		"componentType":5126,
		"count":6,
		"byteOffset":0,
		"min":[16.0768985748291,
		9.695323944091797,
		0.0],
		"max":[20.69292449951172,
		14.716656684875489,
		0.0]
	},
	{
		"bufferView":13,
		"type":"VEC3",
		"componentType":5126,
		"count":6,
		"byteOffset":12,
		"min":[0.0,
		0.0,
		1.0],
		"max":[0.0,
		0.0,
		1.0]
	},
	{
		"bufferView":13,
		"type":"VEC2",
		"componentType":5126,
		"count":6,
		"byteOffset":24,
		"min":[0.0,
		0.0],
		"max":[0.9192830920219421,
		1.0]
	},
	{
		"bufferView":14,
		"type":"VEC3",
		"componentType":5126,
		"count":6,
		"byteOffset":0,
		"min":[-0.031557872891426089,
		-5.3290705182007517e-15,
		0.0],
		"max":[2.360733985900879,
		0.0,
		0.0]
	},
	{
		"bufferView":15,
		"type":"VEC3",
		"componentType":5126,
		"count":6,
		"byteOffset":0,
		"min":[-7.105427357601002e-15,
		-2.5106663703918459,
		0.0],
		"max":[-3.552713678800501e-15,
		2.5106663703918459,
		0.0]
	},
	{
		"bufferView":16,
		"type":"VEC3",
		"componentType":5126,
		"count":6,
		"byteOffset":0,
		"min":[0.0,
		0.0,
		0.0],
		"max":[0.0,
		0.0,
		0.0]
	},
	{
		"bufferView":17,
		"type":"SCALAR",
		"componentType":5126,
		"count":3,
		"byteOffset":0,
		"min":[0.0],
		"max":[1.5]
	},
	{
		"bufferView":17,
		"type":"SCALAR",
		"componentType":5126,
		"count":9,
		"byteOffset":12,
		"min":[0.0],
		"max":[1.0]
	},
	{
		"bufferView":18,
		"type":"SCALAR",
		"componentType":5123,
		"count":12,
		"byteOffset":0,
		"min":[0],
		"max":[5]
	},
	{
		"bufferView":19,
		"type":"VEC3",
		"componentType":5126,
		"count":6,
		"byteOffset":0,
		"min":[12.863349914550782,
		9.695323944091797,
		0.0],
		"max":[15.603550910949707,
		14.716656684875489,
		0.0]
	},
	{
		"bufferView":19,
		"type":"VEC3",
		"componentType":5126,
		"count":6,
		"byteOffset":12,
		"min":[0.0,
		0.0,
		1.0],
		"max":[0.0,
		0.0,
		1.0]
	},
	{
		"bufferView":19,
		"type":"VEC2",
		"componentType":5126,
		"count":6,
		"byteOffset":24,
		"min":[0.0,
		0.0],
		"max":[0.5457119345664978,
		1.0]
	},
	{
		"bufferView":20,
		"type":"VEC3",
		"componentType":5126,
		"count":6,
		"byteOffset":0,
		"min":[-0.03442448750138283,
		-5.3290705182007517e-15,
		0.0],
		"max":[1.400252103805542,
		0.0,
		0.0]
	},
	{
		"bufferView":21,
		"type":"VEC3",
		"componentType":5126,
		"count":6,
		"byteOffset":0,
		"min":[-3.552713678800501e-15,
		-2.5106663703918459,
		0.0],
		"max":[-1.7763568394002506e-15,
		2.5106663703918459,
		0.0]
	},
	{
		"bufferView":22,
		"type":"VEC3",
		"componentType":5126,
		"count":6,
		"byteOffset":0,
		"min":[0.0,
		0.0,
		0.0],
		"max":[0.0,
		0.0,
		0.0]
	},
	{
		"bufferView":23,
		"type":"SCALAR",
		"componentType":5126,
		"count":3,
		"byteOffset":0,
		"min":[0.0],
		"max":[1.5]
	},
	{
		"bufferView":23,
		"type":"SCALAR",
		"componentType":5126,
		"count":9,
		"byteOffset":12,
		"min":[0.0],
		"max":[1.0]
	},
	{
		"bufferView":24,
		"type":"SCALAR",
		"componentType":5123,
		"count":384,
		"byteOffset":0,
		"min":[0],
		"max":[127]
	},
	{
		"bufferView":25,
		"type":"VEC3",
		"componentType":5126,
		"count":128,
		"byteOffset":0,
		"min":[8.659911155700684,
		9.693475723266602,
		0.0],
		"max":[12.447439193725586,
		14.718505859375,
		0.0]
	},
	{
		"bufferView":25,
		"type":"VEC3",
		"componentType":5126,
		"count":128,
		"byteOffset":12,
		"min":[0.0,
		0.0,
		1.0],
		"max":[0.0,
		0.0,
		1.0]
	},
	{
		"bufferView":25,
		"type":"VEC2",
		"componentType":5126,
		"count":128,
		"byteOffset":24,
		"min":[0.0,
		0.0],
		"max":[0.7252737879753113,
		1.0]
	},
	{
		"bufferView":26,
		"type":"VEC3",
		"componentType":5126,
		"count":128,
		"byteOffset":0,
		"min":[-0.5487634539604187,
		-2.0770363807678224,
		0.0],
		"max":[0.5487634539604187,
		2.086740016937256,
		0.0]
	},
	{
		"bufferView":27,
		"type":"VEC3",
		"componentType":5126,
		"count":128,
		"byteOffset":0,
		"min":[-3.552713678800501e-15,
		-2.515019655227661,
		0.0],
		"max":[0.0,
		2.515019655227661,
		0.0]
	},
	{
		"bufferView":28,
		"type":"VEC3",
		"componentType":5126,
		"count":128,
		"byteOffset":0,
		"min":[0.0,
		0.0,
		0.0],
		"max":[0.0,
		0.0,
		0.0]
	},
	{
		"bufferView":29,
		"type":"SCALAR",
		"componentType":5126,
		"count":3,
		"byteOffset":0,
		"min":[0.0],
		"max":[1.5]
	},
	{
		"bufferView":29,
		"type":"SCALAR",
		"componentType":5126,
		"count":9,
		"byteOffset":12,
		"min":[0.0],
		"max":[1.0]
	},
	{
		"bufferView":30,
		"type":"SCALAR",
		"componentType":5123,
		"count":24,
		"byteOffset":0,
		"min":[0],
		"max":[9]
	},
	{
		"bufferView":31,
		"type":"VEC3",
		"componentType":5126,
		"count":10,
		"byteOffset":0,
		"min":[3.8001644611358644,
		9.695323944091797,
		0.0],
		"max":[8.444907188415528,
		14.716656684875489,
		0.0]
	},
	{
		"bufferView":31,
		"type":"VEC3",
		"componentType":5126,
		"count":10,
		"byteOffset":12,
		"min":[0.0,
		0.0,
		1.0],
		"max":[0.0,
		0.0,
		1.0]
	},
	{
		"bufferView":31,
		"type":"VEC2",
		"componentType":5126,
		"count":10,
		"byteOffset":24,
		"min":[0.0,
		0.0],
		"max":[0.9250019192695618,
		1.0]
	},
	{
		"bufferView":32,
		"type":"VEC3",
		"componentType":5126,
		"count":10,
		"byteOffset":0,
		"min":[-0.0017607553163543344,
		-5.3290705182007517e-15,
		0.0],
		"max":[2.4192471504211427,
		0.0,
		0.0]
	},
	{
		"bufferView":33,
		"type":"VEC3",
		"componentType":5126,
		"count":10,
		"byteOffset":0,
		"min":[-1.7763568394002506e-15,
		-2.5106663703918459,
		0.0],
		"max":[0.0,
		2.5106663703918459,
		0.0]
	},
	{
		"bufferView":34,
		"type":"VEC3",
		"componentType":5126,
		"count":10,
		"byteOffset":0,
		"min":[0.0,
		0.0,
		0.0],
		"max":[0.0,
		0.0,
		0.0]
	},
	{
		"bufferView":35,
		"type":"SCALAR",
		"componentType":5126,
		"count":3,
		"byteOffset":0,
		"min":[0.0],
		"max":[1.5]
	},
	{
		"bufferView":35,
		"type":"SCALAR",
		"componentType":5126,
		"count":9,
		"byteOffset":12,
		"min":[0.0],
		"max":[1.0]
	}],
	"bufferViews":[{
		"buffer":0,
		"byteOffset":0,
		"byteLength":126,
		"target":34963
	},
	{
		"buffer":0,
		"byteOffset":128,
		"byteLength":736,
		"target":34962,
		"byteStride":32
	},
	{
		"buffer":0,
		"byteOffset":864,
		"byteLength":276,
		"target":34962
	},
	{
		"buffer":0,
		"byteOffset":1140,
		"byteLength":276,
		"target":34962
	},
	{
		"buffer":0,
		"byteOffset":1416,
		"byteLength":276,
		"target":34962
	},
	{
		"buffer":1,
		"byteOffset":0,
		"byteLength":48
	},
	{
		"buffer":2,
		"byteOffset":0,
		"byteLength":768,
		"target":34963
	},
	{
		"buffer":2,
		"byteOffset":768,
		"byteLength":4096,
		"target":34962,
		"byteStride":32
	},
	{
		"buffer":2,
		"byteOffset":4864,
		"byteLength":1536,
		"target":34962
	},
	{
		"buffer":2,
		"byteOffset":6400,
		"byteLength":1536,
		"target":34962
	},
	{
		"buffer":2,
		"byteOffset":7936,
		"byteLength":1536,
		"target":34962
	},
	{
		"buffer":3,
		"byteOffset":0,
		"byteLength":48
	},
	{
		"buffer":4,
		"byteOffset":0,
		"byteLength":24,
		"target":34963
	},
	{
		"buffer":4,
		"byteOffset":24,
		"byteLength":192,
		"target":34962,
		"byteStride":32
	},
	{
		"buffer":4,
		"byteOffset":216,
		"byteLength":72,
		"target":34962
	},
	{
		"buffer":4,
		"byteOffset":288,
		"byteLength":72,
		"target":34962
	},
	{
		"buffer":4,
		"byteOffset":360,
		"byteLength":72,
		"target":34962
	},
	{
		"buffer":5,
		"byteOffset":0,
		"byteLength":48
	},
	{
		"buffer":6,
		"byteOffset":0,
		"byteLength":24,
		"target":34963
	},
	{
		"buffer":6,
		"byteOffset":24,
		"byteLength":192,
		"target":34962,
		"byteStride":32
	},
	{
		"buffer":6,
		"byteOffset":216,
		"byteLength":72,
		"target":34962
	},
	{
		"buffer":6,
		"byteOffset":288,
		"byteLength":72,
		"target":34962
	},
	{
		"buffer":6,
		"byteOffset":360,
		"byteLength":72,
		"target":34962
	},
	{
		"buffer":7,
		"byteOffset":0,
		"byteLength":48
	},
	{
		"buffer":8,
		"byteOffset":0,
		"byteLength":768,
		"target":34963
	},
	{
		"buffer":8,
		"byteOffset":768,
		"byteLength":4096,
		"target":34962,
		"byteStride":32
	},
	{
		"buffer":8,
		"byteOffset":4864,
		"byteLength":1536,
		"target":34962
	},
	{
		"buffer":8,
		"byteOffset":6400,
		"byteLength":1536,
		"target":34962
	},
	{
		"buffer":8,
		"byteOffset":7936,
		"byteLength":1536,
		"target":34962
	},
	{
		"buffer":9,
		"byteOffset":0,
		"byteLength":48
	},
	{
		"buffer":10,
		"byteOffset":0,
		"byteLength":48,
		"target":34963
	},
	{
		"buffer":10,
		"byteOffset":48,
		"byteLength":320,
		"target":34962,
		"byteStride":32
	},
	{
		"buffer":10,
		"byteOffset":368,
		"byteLength":120,
		"target":34962
	},
	{
		"buffer":10,
		"byteOffset":488,
		"byteLength":120,
		"target":34962
	},
	{
		"buffer":10,
		"byteOffset":608,
		"byteLength":120,
		"target":34962
	},
	{
		"buffer":11,
		"byteOffset":0,
		"byteLength":48
	}],
	"buffers":[{
		"uri":"data:application/octet-stream;base64,",
		"byteLength":1692
	},
	{
		"uri":"data:application/octet-stream;base64,",
		"byteLength":48
	},
	{
		"uri":"data:application/octet-stream;base64,",
		"byteLength":9472
	},
	{
		"uri":"data:application/octet-stream;base64,",
		"byteLength":48
	},
	{
		"uri":"data:application/octet-stream;base64,",
		"byteLength":432
	},
	{
		"uri":"data:application/octet-stream;base64,",
		"byteLength":48
	},
	{
		"uri":"data:application/octet-stream;base64,",
		"byteLength":432
	},
	{
		"uri":"data:application/octet-stream;base64,",
		"byteLength":48
	},
	{
		"uri":"data:application/octet-stream;base64,",
		"byteLength":9472
	},
	{
		"uri":"data:application/octet-stream;base64,",
		"byteLength":48
	},
	{
		"uri":"data:application/octet-stream;base64,",
		"byteLength":728
	},
	{
		"uri":"data:application/octet-stream;base64,",
		"byteLength":48
	}],
	"animations":[{
		"samplers":[{
			"input":7,
			"interpolation":"LINEAR",
			"output":8
		},
		{
			"input":16,
			"interpolation":"LINEAR",
			"output":17
		},
		{
			"input":25,
			"interpolation":"LINEAR",
			"output":26
		},
		{
			"input":34,
			"interpolation":"LINEAR",
			"output":35
		},
		{
			"input":43,
			"interpolation":"LINEAR",
			"output":44
		},
		{
			"input":52,
			"interpolation":"LINEAR",
			"output":53
		}],
		"channels":[{
			"sampler":0,
			"target":{
				"node":1,
				"path":"weights"
			}
		},
		{
			"sampler":1,
			"target":{
				"node":2,
				"path":"weights"
			}
		},
		{
			"sampler":2,
			"target":{
				"node":3,
				"path":"weights"
			}
		},
		{
			"sampler":3,
			"target":{
				"node":4,
				"path":"weights"
			}
		},
		{
			"sampler":4,
			"target":{
				"node":5,
				"path":"weights"
			}
		},
		{
			"sampler":5,
			"target":{
				"node":6,
				"path":"weights"
			}
		}]
	}]
}